<?xml version="1.0" encoding="utf-8"?>
<!-- Generator: Adobe Illustrator 26.0.3, SVG Export Plug-In . SVG Version: 6.00 Build 0)  -->
<svg version="1.1" id="Capa_1" xmlns="http://www.w3.org/2000/svg" xmlns:xlink="http://www.w3.org/1999/xlink" x="0px" y="0px"
	 viewBox="0 0 1080 1080" style="enable-background:new 0 0 1080 1080;" xml:space="preserve">
<style type="text/css">
	.st0{fill:#FFFFFF;}
</style>
<path class="st0" d="M127.98,860.53c0-5.05,0-8.82,0-12.59c0-151.35,0-302.7,0-454.06c0-34.42,17.85-52.22,52.31-52.23
	c88.71,0,177.43-0.14,266.14,0.22c8.46,0.03,12.23-2.61,13.09-10.56c0.24-2.2,0.77-4.38,1.32-6.53c2.44-9.58,2.6-16.65-8.14-23.35
	c-7.97-4.97-15.04-15.6-17.09-24.9c-3.15-14.29-2.37-29.64-1.8-44.48c0.3-7.71,6.57-12.05,14.54-12.47
	c4.72-0.25,9.46-0.05,15.4-0.05c0-3.97,0-7.35,0-10.73c0-40.38-0.02-80.76,0.01-121.15c0.01-16.11,4.78-20.78,21.16-20.79
	c36.88-0.02,73.77-0.02,110.65,0c16.09,0.01,20.79,4.8,20.8,21.17c0.02,40.06,0.01,80.13,0.01,120.19c0,3.42,0,6.85,0,11.29
	c5.49,0,10.17-0.21,14.83,0.04c9.56,0.52,15.31,6.11,15.59,15.72c0.31,10.8,0.54,21.65-0.14,32.42
	c-1.06,16.76-9.32,29.53-24.1,37.52c-4.42,2.39-5.45,4.73-4.88,9.61c3.1,26.73,2.94,26.75,29.84,26.75
	c84.58,0,169.16-0.01,253.74,0.01c32.44,0.01,50.89,18.39,50.9,50.77c0.02,151.99,0.01,303.98,0.01,455.96c0,3.74,0,7.47,0,12.19
	c10.28,0,19.73-0.11,29.18,0.02c18.9,0.27,31.85,12.9,31.77,31.82c-0.08,19.67,0.95,39.63-1.91,58.95
	c-5.17,34.86-36,60.35-71.19,61.73c-2.54,0.1-5.09,0.1-7.63,0.1c-261.69,0-523.37,0.02-785.06-0.01
	c-38.32,0-69.25-21.83-77.37-56.67c-3.26-13.99-2.28-28.99-2.96-43.55c-0.34-7.3-0.23-14.63-0.01-21.94
	c0.51-17.32,13.02-29.92,30.31-30.39C107.09,860.31,116.91,860.53,127.98,860.53z M220.24,433.53c0,122.35,0,243.9,0,365.15
	c213.81,0,426.93,0,639.78,0c0-122.12,0-243.45,0-364.87c-58.14,0-115.71,0-173.67,0c8.94,14.89,8.59,17.97-2.65,30.45
	c-42.55,47.25-85.08,94.52-127.6,141.79c-12.41,13.8-19.59,13.86-31.83,0.25c-42.09-46.8-84.24-93.56-126.23-140.45
	c-3.95-4.41-8.86-9.37-9.77-14.68c-0.93-5.43,2.52-11.61,4.1-17.64C335.8,433.53,278.37,433.53,220.24,433.53z M982.57,891.83
	c-1.86-0.38-2.75-0.72-3.65-0.72c-110.65-0.04-221.29-0.1-331.94,0.2c-3.03,0.01-7.31,3.26-8.88,6.16
	c-7.56,13.95-14.67,28.17-21.37,42.56c-4,8.58-9.99,12.23-19.43,12.17c-38.15-0.25-76.31-0.26-114.46,0.01
	c-9.5,0.07-15.4-3.67-19.39-12.22c-6.3-13.52-13.71-26.53-19.79-40.14c-3.04-6.81-6.81-9.01-14.33-8.99
	c-107.15,0.28-214.3,0.19-321.45,0.19c-3.34,0-6.68,0-10.33,0c0,17.3-0.62,33.2,0.14,49.04c1.21,25.08,21.84,42.52,49.38,42.52
	c261.99,0.02,523.98,0.01,785.97,0.01c2.23,0,4.46,0.04,6.67-0.1c22.73-1.41,41.64-19.72,42.7-42.43
	C983.17,924.25,982.57,908.35,982.57,891.83z M158.51,859.77c255.14,0,508.95,0,763.13,0c0-3.59,0-6.44,0-9.28
	c0-152.29,0-304.58-0.01-456.86c0-16.92-4.57-21.5-21.42-21.5c-84.25-0.01-168.5-0.01-252.75-0.01c-3.03,0-6.07,0-11.45,0
	c6.26,8.57,11.55,15.17,16.12,22.25c4.25,6.58,9.61,8.51,17.43,8.47c66.45-0.33,132.89-0.2,199.34-0.19
	c17.71,0,22.21,4.38,22.21,21.67c0.01,128.13,0.01,256.25,0,384.38c0,16.73-4.66,21.3-21.65,21.3c-219.69,0.01-439.38,0.01-659.07,0
	c-16.8,0-21.35-4.61-21.36-21.57c-0.01-128.13-0.01-256.25,0-384.38c0-16.86,4.56-21.39,21.51-21.4c67.4-0.01,134.8,0.02,202.2-0.09
	c3.28-0.01,7.89-0.08,9.62-2.07c7.34-8.47,13.82-17.68,21.94-28.37c-5.85,0-8.94,0-12.04,0c-83.62,0-167.23,0-250.85,0
	c-18.85,0-22.92,4.05-22.92,22.86c0,151.33,0,302.67,0,454C158.51,852.42,158.51,855.86,158.51,859.77z M524.8,561.2
	c0-28.64,0.16-54.63-0.26-80.62c-0.04-2.42-3.3-5.57-5.84-7.05c-14.57-8.46-23.03-20.84-24.26-37.59
	c-1.68-22.9,13.97-43.05,36.58-47.9c21.31-4.57,43.48,7.57,51.58,28.25c8.41,21.47,0.08,45.32-20.43,56.48
	c-5.2,2.83-7.13,5.65-6.99,11.56c0.43,17.79,0.16,35.6,0.16,53.41c0,7.07,0,14.14,0,23.54c35.16-39.08,68.46-76.08,102.31-113.7
	c-36.79-39.24-67.52-80.84-70.84-135.96c-31.83,0-62.21,0-93.64,0c-3.17,55.86-34.59,97.11-70.58,136.06
	C456.65,485.53,489.8,522.34,524.8,561.2z M495.08,97.6c0,40.42,0,80.78,0,121.25c30.27,0,60.24,0,90.06,0c0-40.78,0-80.91,0-121.25
	C554.91,97.6,525.39,97.6,495.08,97.6z M463.78,250.33c0,5.36-0.18,9.78,0.04,14.18c0.49,10.03,6.12,15.89,16.31,15.94
	c39.98,0.18,79.97,0.18,119.95,0c10.15-0.05,15.77-5.94,16.25-16.01c0.22-4.61,0.04-9.24,0.04-14.1
	C565.06,250.33,515.02,250.33,463.78,250.33z M473.53,891.5c4.75,9.59,8.83,18.46,13.61,26.93c1.02,1.8,4.64,2.99,7.08,3.01
	c30.5,0.2,60.99,0.17,91.49,0.04c2.3-0.01,5.84-0.57,6.68-2.06c5.01-8.91,9.39-18.18,14.28-27.91
	C561.58,891.5,518.19,891.5,473.53,891.5z M555.26,432.98c-0.1-8.19-6.95-15-15.13-15.04c-8.2-0.04-15.1,6.7-15.25,14.9
	c-0.17,8.57,7.04,15.74,15.6,15.51C548.66,448.14,555.36,441.17,555.26,432.98z"/>
<path class="st0" d="M356.53,707.26c30.71,0,60.08,0,91.28,0c-58.75-41.08-88.98-95.98-91.51-167.41c5.79,0,10.76,0,15.73,0
	c4.7,0,9.4,0,14.32,0c4.81,76.43,41.57,129.24,111.92,158.47c24.71-47.51,87.35-48.87,112.26-1.29
	c56.88-10.18,105.46-77.34,112.85-157.19c4.81,0,9.77,0,14.73,0c4.71,0,9.42,0,14.06,0c3.63,43.26-18.34,119.26-89.55,167.09
	c30.68,0,60.18,0,90.79,0c0-4.61-0.2-9.28,0.04-13.92c0.5-9.62,6.03-15.54,15.6-15.68c20.03-0.3,40.06-0.29,60.09-0.01
	c9.6,0.14,15.55,6,15.69,15.56c0.31,20.03,0.3,40.06,0.01,60.09c-0.14,9.59-6.03,15.55-15.58,15.69c-20.03,0.3-40.06,0.3-60.09,0.01
	c-9.61-0.14-15.19-6.02-15.72-15.59c-0.24-4.43-0.04-8.89-0.04-14.82c-3.35,0-6.37,0-9.38,0c-40.38,0-80.76,0.12-121.13-0.12
	c-6.11-0.04-9.32,1.2-11.79,7.59c-9.16,23.66-31.44,38.34-56.3,38.28c-24.75-0.05-46.56-15.1-56.55-38.39
	c-1.29-3-5.07-7.02-7.72-7.05c-44.17-0.44-88.34-0.31-134-0.31c0,4.98,0.17,9.59-0.03,14.18c-0.44,10.17-5.99,16.09-16.08,16.23
	c-19.71,0.27-39.42,0.26-59.13,0.01c-10.19-0.13-16.07-5.94-16.21-16.04c-0.27-19.71-0.26-39.42-0.01-59.13
	c0.13-10.21,5.9-16.07,16.03-16.21c19.71-0.27,39.42-0.26,59.13-0.01c10.18,0.13,15.78,5.92,16.26,16.03
	C356.71,697.73,356.53,702.14,356.53,707.26z M554.54,692.51c-16.6,0.16-30.19,14.01-30.05,30.63c0.14,16.7,13.75,30.27,30.4,30.32
	c17.02,0.05,30.9-14.09,30.55-31.11C585.09,705.73,571.24,692.35,554.54,692.51z M325.29,737.91c0-10.58,0-20.2,0-29.68
	c-10.13,0-19.53,0-29.22,0c0,10.1,0,19.71,0,29.68C306.03,737.91,315.41,737.91,325.29,737.91z M813.98,737.9
	c0-10.44,0-19.83,0-29.62c-10.07,0-19.68,0-29.45,0c0,10.16,0,19.77,0,29.62C794.54,737.9,803.93,737.9,813.98,737.9z"/>
</svg>
