<?xml version="1.0" encoding="utf-8"?>
<!-- Generator: Adobe Illustrator 26.0.3, SVG Export Plug-In . SVG Version: 6.00 Build 0)  -->
<svg version="1.1" id="Capa_1" xmlns="http://www.w3.org/2000/svg" xmlns:xlink="http://www.w3.org/1999/xlink" x="0px" y="0px"
	 viewBox="0 0 1080 1080" style="enable-background:new 0 0 1080 1080;" xml:space="preserve">
<style type="text/css">
	.st0{fill:#FFFFFF;}
</style>
<g>
	<path class="st0" d="M160.25,578.37c0,101.86,0,202.48,0,303.68c131.63,0,262.9,0,395.15,0c0-3.68,0-7.07,0-10.46
		c0-43.4,0-86.8,0-130.21c0-2.53-0.12-5.08,0.05-7.6c0.62-9.15,6.51-15.07,14.97-15.16c8.54-0.09,14.76,5.68,15.28,14.79
		c0.38,6.63,0.11,13.3,0.12,19.95c0,39.28,0,78.57,0,117.85c0,3.42,0,6.85,0,11.39c9.77,0,18.85-0.11,27.92,0.03
		c11.89,0.19,17.58,5.67,17.64,17.44c0.07,12.66,0.92,25.5-0.8,37.95c-5.44,39.43-36.69,66.18-76.76,66.22
		c-130.84,0.13-261.68,0.07-392.52-0.01c-5.03,0-10.13-0.51-15.08-1.43c-35.99-6.66-61.63-36.87-62.35-73.4
		c-0.19-9.5-0.14-19.01-0.03-28.51c0.14-12.89,5.57-18.16,18.74-18.29c8.52-0.08,17.04-0.02,26.87-0.02c0-4.17,0-7.83,0-11.49
		c0-100.43,0-200.85,0-301.28c0-17.5,4.38-21.89,21.82-21.89c44.04-0.01,88.07,0.05,132.11-0.05c8.07-0.02,14.45,2.41,17.25,10.45
		c3.63,10.45-3.8,19.84-16.02,19.95c-23.12,0.21-46.25,0.07-69.38,0.07C197.22,578.37,179.2,578.37,160.25,578.37z M190.05,973.72
		c1.09-12.49-3.56-28.99,14.54-29.67c20.25-0.76,15,17.44,16.45,29.06c91.79,0,182.5,0,273.17,0c1.14-22.71,4.05-29.52,14.22-29.34
		c20.68,0.38,15.39,17.35,16.95,29.27c65.2,9.01,80.27-26.02,74.57-59.41c-161.67,0-323.37,0-485.61,0c0,6.25-0.28,11.91,0.05,17.55
		c1.28,22.2,19.18,40.84,41.41,42.41C166.79,974.37,177.89,973.72,190.05,973.72z"/>
	<path class="st0" d="M540.04,449.53c-63.78,52.61-126.76,104.54-190.61,157.21c4.83,8.5,9.56,16.93,14.39,25.31
		c7.27,12.61,14.66,25.16,21.92,37.78c6.78,11.79,5.64,20.85-3.1,25.63c-8.55,4.67-16.74,0.94-23.54-10.78
		c-11.57-19.94-23.1-39.89-35.18-60.75c-19.05,11.22-38.01,21.4-55.87,33.24c-12.09,8.01-14.92,24.49-7.78,37.53
		c9.88,18.04,20.12,35.91,30.89,53.43c8.52,13.85,24.42,17.87,39.08,10.99c0.57-0.27,1.18-0.49,1.7-0.84
		c62.22-41.94,134.21-61.5,202.95-88.44c35.61-13.96,71.6-26.95,108.43-40.76c-1.92-3.45-3.5-6.39-5.17-9.28
		c-20.1-34.81-40.27-69.58-60.29-104.44c-6.05-10.54-2.96-21.1,6.73-24.3c8.07-2.67,14.59,0.43,20.11,9.96
		c19.03,32.87,37.97,65.79,56.95,98.7c4.9,8.5,9.87,16.96,14.68,25.51c7.67,13.62,4.8,21.75-9.85,27.26
		c-62.46,23.51-124.94,46.93-187.42,70.39c-11.82,4.44-23.62,8.91-36.4,13.73c9.5,16.67,19,32.59,27.76,48.9
		c13.19,24.56,2.68,54.05-22.44,64.3c-21.11,8.61-44.49,0.74-56.75-19.62c-10.27-17.06-20-34.43-28.76-49.56
		c-16.02,4.44-30.72,10.21-45.92,12.26c-16.14,2.17-29.91-6.25-42.12-17.08c-5.69,3.12-11.11,6.36-16.75,9.15
		c-22.61,11.22-48.85,3.42-60.95-18c-12.15-21.49-5.18-47.75,16.3-61.36c1.6-1.02,3.18-2.17,4.93-2.84
		c8.06-3.13,10.54-7.56,9.36-17.21c-2.74-22.36,6.4-40.75,24.36-54.54c1.25-0.96,2.52-1.97,3.93-2.65
		c66.09-32.11,118.9-82.39,175.04-128.09c33.66-27.4,66.98-55.21,100.47-82.81c12.11-9.98,20.7-8.5,28.61,4.86
		c4.19,7.08,8.44,14.14,12.34,21.38c4.7,8.72,2.81,17.22-4.45,21.72c-7.74,4.8-16.16,2.37-21.85-6.38
		C544.09,456.4,542.54,453.66,540.04,449.53z M413.17,747.76c-9.4,5.41-17.48,10.06-26.15,15.05c10.66,18.4,20.53,35.99,31,53.21
		c4.4,7.24,13.01,8.8,19.99,4.91c6.79-3.79,9.97-12.36,5.94-19.7C434.26,783.55,423.88,766.25,413.17,747.76z M256.49,749.62
		c-5.13-8.85-9.94-17.17-14.71-25.4c-19.88,10.03-24.94,17.78-18.96,27.91C228.76,762.21,238.86,761.64,256.49,749.62z"/>
	<path class="st0" d="M859.7,91.58c29.47,0,58.93-0.06,88.4,0.01c29.14,0.08,48.37,19.1,48.42,48.1c0.1,59.25,0.11,118.49,0,177.74
		c-0.05,28.53-19.26,47.87-47.65,47.92c-59.56,0.12-119.13,0.12-178.69,0c-27.84-0.06-47.26-19.47-47.41-47.2
		c-0.15-28.51-0.07-57.03-0.02-85.54c0.02-12.15,5.43-19.05,14.86-19.26c9.75-0.22,15.51,6.94,15.53,19.57
		c0.05,27.56-0.03,55.13,0.03,82.69c0.03,14.18,5.25,19.34,19.6,19.35c57.98,0.04,115.96,0.04,173.94,0
		c14.19-0.01,19.38-5.26,19.39-19.57c0.04-57.98,0.04-115.96,0-173.94c-0.01-14.24-5.22-19.41-19.53-19.42
		c-57.98-0.04-115.96-0.04-173.94,0c-14.3,0.01-19.38,5.17-19.47,19.47c-0.05,8.24,0.16,16.48-0.07,24.71
		c-0.28,10.18-6.76,16.87-15.65,16.57c-8.56-0.29-14.45-6.73-14.66-16.58c-0.21-9.82-0.23-19.65-0.01-29.46
		c0.57-25.39,20.1-44.85,45.67-45.08C798.87,91.38,829.29,91.59,859.7,91.58z"/>
	<path class="st0" d="M722.74,700.12c-0.01-29.47-0.07-58.93,0.01-88.4c0.08-29.57,19.17-48.52,48.94-48.55
		c58.61-0.05,117.23-0.05,175.84,0c29.82,0.03,48.9,18.91,49,48.49c0.09,28.2,0.06,56.4,0,84.59c-0.03,11.96-5.75,18.95-15.2,18.95
		c-9.47,0-15.15-6.97-15.18-18.96c-0.06-27.88,0.03-55.76-0.04-83.64c-0.04-13.65-5.36-18.99-18.99-19
		c-58.3-0.05-116.59-0.05-174.89,0c-13.7,0.01-19.03,5.3-19.04,18.93c-0.05,58.3-0.05,116.59,0,174.89
		c0.01,13.71,5.31,19.09,18.89,19.1c58.3,0.06,116.59,0.05,174.89,0c13.72-0.01,19.03-5.32,19.16-18.86
		c0.08-8.55-0.16-17.11,0.08-25.66c0.28-9.76,6.37-16.14,14.99-16.23c8.63-0.09,15.02,6.27,15.27,15.95
		c0.28,10.76,0.44,21.56-0.08,32.31c-1.11,23.04-19.95,42.5-43.03,42.69c-62.41,0.52-124.83,0.53-187.24,0.01
		c-24.22-0.2-43.07-20.63-43.3-45.37C722.54,760.95,722.75,730.53,722.74,700.12z"/>
	<path class="st0" d="M296.79,366.35c0,38.66,0.03,77.32-0.01,115.99c-0.02,14.89-5.08,19.95-19.98,19.96
		c-57.68,0.03-115.35,0.03-173.03,0c-14.89-0.01-19.93-5.06-19.94-19.98c-0.03-77.96-0.03-155.92,0-233.87
		c0.01-14.92,5.02-19.93,19.96-19.94c57.68-0.03,115.35-0.03,173.03,0c14.9,0.01,19.94,5.05,19.96,19.96
		C296.82,287.76,296.79,327.06,296.79,366.35z M265.96,259.6c-50.93,0-101.08,0-150.95,0c0,71.11,0,141.54,0,211.77
		c50.69,0,100.62,0,150.95,0C265.96,400.65,265.96,330.45,265.96,259.6z"/>
	<path class="st0" d="M327.23,213.1c0.31-75.89,61.93-137.12,137.55-136.69c75.79,0.43,136.55,61.99,136.21,138.01
		c-0.33,75.33-62.44,136.2-138.51,135.74C388.01,349.71,326.92,287.81,327.23,213.1z M570.57,213.18
		c-0.02-58.6-47.89-106.5-106.3-106.37c-59.16,0.13-106.66,47.82-106.61,107.03c0.05,57.91,47.92,105.81,105.84,105.9
		C522.75,319.82,570.59,272.21,570.57,213.18z"/>
	<path class="st0" d="M920.46,699.79c0.1,33.67-27.16,61.06-60.8,61.11c-33.18,0.04-60.6-27.04-60.84-60.1
		c-0.25-33.77,26.74-61.31,60.33-61.57C892.78,638.97,920.37,666.23,920.46,699.79z M859.55,669.68
		c-16.64,0.11-30.2,13.64-30.28,30.23c-0.08,16.95,13.97,30.81,30.94,30.51c16.56-0.3,29.94-14.07,29.82-30.7
		C889.9,683.27,876,669.57,859.55,669.68z"/>
	<path class="st0" d="M859.64,212.92c23.75,1.13,30.08,4.46,30.34,15.21c0.27,10.84-6.24,14.43-30.35,16.09
		c0,14.31-0.04,28.76,0.01,43.2c0.03,8.72-3.84,14.7-12.41,16.74c-9.31,2.22-17.71-5.11-17.93-15.8
		c-0.29-14.51-0.07-29.03-0.07-44.07c-12.41-1.85-30.16,3.55-29.88-16.15c0.27-18.91,17.38-13.82,29.9-15.27
		c0-5.81-0.17-11.13,0.03-16.42c0.9-23.93,19.98-43.12,43.92-43.94c10.13-0.34,20.28-0.24,30.42-0.04
		c10.31,0.2,16.95,6.48,16.79,15.42c-0.16,8.92-6.77,14.71-17.32,14.92c-7.6,0.15-15.21,0.01-22.81,0.04
		c-15.99,0.05-20.68,4.87-20.64,21.18C859.65,206.82,859.64,209.6,859.64,212.92z"/>
	<path class="st0" d="M708.4,532.74c-10.11-0.12-16.68-5.55-17.61-13.73c-0.9-7.93,4.58-14.79,13.59-16.64
		c24.49-5.01,48.99-9.99,73.51-14.83c10.92-2.15,18.83,2.34,20.74,11.35c2.02,9.52-3.31,16.62-14.87,19.03
		c-23.54,4.92-47.12,9.63-70.7,14.37C711.22,532.68,709.29,532.66,708.4,532.74z"/>
	<path class="st0" d="M599.33,397.19c2.65-5.46,3.69-8.85,5.69-11.54c14.45-19.54,28.99-39.01,43.7-58.35
		c6.31-8.3,15.03-9.79,22.24-4.36c7.22,5.44,8.2,14.1,1.92,22.62c-14.42,19.56-29.04,38.98-43.72,58.34
		c-4.6,6.06-11.13,9.68-18.12,5.7C606.2,406.85,603,401.24,599.33,397.19z"/>
	<path class="st0" d="M724.45,393.98c4.14,4.02,9.56,7.42,12.24,12.32c3.62,6.64,0.25,12.99-5.53,17.38
		c-19.61,14.88-39.27,29.7-59.1,44.29c-8.32,6.12-17.23,4.79-22.5-2.63c-5.03-7.08-3.58-15.52,4.29-21.58
		c12.75-9.83,25.73-19.35,38.61-29c6.57-4.92,13.01-10.02,19.75-14.69C715.21,397.97,718.81,396.73,724.45,393.98z"/>
	<path class="st0" d="M189.67,380.6c-9.51,0-19.02,0.18-28.51-0.05c-9.8-0.24-16.22-6.25-16.4-14.84
		c-0.2-8.97,6.4-15.35,16.72-15.46c19.33-0.19,38.66-0.2,57.98,0.01c9.8,0.11,16.22,6.22,16.42,14.81
		c0.2,8.91-6.47,15.26-16.73,15.49C209.32,380.77,199.49,380.6,189.67,380.6z"/>
	<path class="st0" d="M190.1,441.45c-9.51,0-19.01,0.16-28.51-0.04c-10.36-0.22-16.96-6.41-16.84-15.37
		c0.12-8.93,6.72-14.87,17.23-14.96c19.01-0.15,38.02-0.17,57.03,0.01c10.35,0.1,16.98,6.39,16.85,15.34
		c-0.12,8.94-6.71,14.8-17.24,14.99C209.12,441.59,199.61,441.45,190.1,441.45z"/>
	<path class="st0" d="M204.91,319.69c-5.07-0.01-10.16,0.31-15.2-0.08c-8.49-0.65-14.35-6.82-14.54-14.72
		c-0.2-8.29,5.84-15.03,14.78-15.4c10.44-0.43,20.92-0.43,31.35,0.02c8.48,0.36,14.36,6.77,14.55,14.67
		c0.2,8.26-5.88,14.83-14.8,15.45C215.71,320,210.3,319.7,204.91,319.69z"/>
	<path class="st0" d="M418.5,213.08c0-14.25-0.15-28.5,0.04-42.74c0.2-15.12,10.7-21.68,24.36-14.97
		c28.94,14.22,57.91,28.42,86.41,43.48c4.76,2.52,9.09,8.94,10.3,14.3c1.61,7.14-4.16,11.95-10.56,15.13
		c-28.87,14.36-57.64,28.93-86.59,43.14c-13.16,6.46-23.67-0.08-23.91-14.65C418.31,242.21,418.5,227.64,418.5,213.08z
		 M449.19,234.19c14.23-7.17,27.01-13.61,41.55-20.94c-14.77-7.39-27.78-13.89-41.55-20.78
		C449.19,206.84,449.19,219.74,449.19,234.19z"/>
</g>
</svg>
