<?xml version="1.0" encoding="utf-8"?>
<!-- Generator: Adobe Illustrator 26.0.3, SVG Export Plug-In . SVG Version: 6.00 Build 0)  -->
<svg version="1.1" id="Capa_1" xmlns="http://www.w3.org/2000/svg" xmlns:xlink="http://www.w3.org/1999/xlink" x="0px" y="0px"
	 viewBox="0 0 1080 1080" style="enable-background:new 0 0 1080 1080;" xml:space="preserve">
<style type="text/css">
	.st0{fill:#FFFFFF;}
</style>
<g>
	<path class="st0" d="M690.65,828.39c-5.65,45.92-26.32,82.77-63.69,109.54c-27.13,19.43-57.69,28.59-91.02,27.6
		c-38.12-1.13-71.32-14.92-99.12-40.96c-27.55-25.81-42.83-58.02-47.19-96.18c-14.44,0-28.37,0-42.31,0
		c-17.16,0-34.31,0.05-51.47-0.01c-26.79-0.1-43.88-17.22-44.01-44.02c-0.02-3.42,0-6.83,0-11.12
		c-54.44-7.33-95.78-34.17-121.13-83.19c-16.77-32.43-20.49-67-12.02-102.52c17.09-71.63,83.22-120.33,156.72-115.81
		c73.8,4.54,132.89,62.17,140.6,137.75c7.39,72.4-45.23,154.5-136.65,164.05c0,4.69-0.35,9.5,0.08,14.25
		c0.71,7.93,5.39,12.93,13.32,12.99c32.01,0.28,64.01,0.12,96.58,0.12c1.03-5.59,1.82-10.9,3.01-16.12
		c12.73-55.64,45.91-93.36,99.56-112.8c5.56-2.02,7.4-4.49,7.2-10.32c-0.26-7.36-0.19-15,1.48-22.1
		c4.67-19.79,23.71-32.69,43.77-30.6c19.96,2.08,37.44,18.87,36.35,38.9c-0.91,16.67,5.17,22.86,20.12,29.44
		c51.15,22.52,80.51,62.96,88.84,118.41c0.21,1.39,0.6,2.75,1.06,4.76c2.84,0.16,5.58,0.46,8.32,0.46c23.73,0.04,47.47,0.07,71.2,0
		c11.84-0.04,16.85-4.92,16.9-16.53c0.1-21.65,0.03-43.31,0.03-65.6c-23,0-45.2,0-68.01,0c0-9.29,0-17.96,0-27.29
		c8.48,0,16.95,0,26.13,0c0-9.28,0-17.95,0-27.45c-2.47-0.12-5.22-0.36-7.96-0.36c-20.02-0.04-40.04,0.19-60.05-0.09
		c-23.04-0.32-40.9-17.9-41-40.87c-0.24-55.19-0.26-110.38,0.02-165.56c0.11-22.51,17.97-40.4,40.49-40.46
		c82.64-0.23,165.28-0.22,247.92-0.02c22.98,0.06,40.73,17.95,40.83,41.02c0.24,54.9,0.23,109.81,0,164.71
		c-0.1,23.42-18.01,40.97-41.57,41.2c-22.28,0.22-44.57,0.05-67.5,0.05c0,9.03,0,17.7,0,27.33c8.59,0,17.28,0,26.37,0
		c0,9.4,0,17.87,0,27.29c-22.37,0-44.78,0-68.2,0c0,17.41,0,33.89,0,50.37c0,6.29,0.11,12.58-0.04,18.87
		c-0.56,22.93-18.12,40.54-41.14,40.8c-24.3,0.27-48.61,0.07-72.91,0.07C697.42,828.39,694.32,828.39,690.65,828.39z M663.67,580.75
		c92,0,182.97,0,274.49,0c0-3.38,0-6.19,0-9.01c0-36,0.01-72.01,0-108.01c-0.01-15.69-4.01-19.68-19.77-19.68
		c-78.29-0.01-156.58,0-234.88,0c-2,0-4.01-0.1-6,0.05c-8.18,0.59-13.7,5.45-13.74,13.52C663.56,498.45,663.67,539.28,663.67,580.75
		z M265.81,498.96c-67.93-0.09-123.55,55.1-123.79,122.83c-0.24,68.35,55.12,124.15,123.26,124.23
		c67.9,0.09,123.55-55.13,123.8-122.85C389.35,554.84,333.98,499.05,265.81,498.96z M581.27,699.43c0,6.35,0.54,12.61-0.14,18.74
		c-0.8,7.2,1.86,10.93,8.16,14.66c44.49,26.3,59.78,82.69,35.12,127.7c-24.8,45.27-80.22,63.27-126.3,40.25
		c-33.42-16.69-51.99-44.46-53.72-81.72c-1.76-38.11,15.41-67,47.58-87.25c2.76-1.74,6.33-4.69,6.61-7.38
		c0.87-8.17,0.32-16.5,0.32-24.85c-45.69,7.84-86.08,69.31-82.1,124.24c4.51,62.46,57.26,113.01,119.29,114.33
		c65.77,1.4,119.1-45.39,127.05-111.48C669.61,772.83,629.2,709.49,581.27,699.43z M498.93,761.28
		c-22.64,13.86-32.97,47.12-24.07,74.53c9.78,30.12,39.19,49.79,70.71,47.3c32.04-2.53,57.51-26.87,62.62-59.66
		c3.71-23.81-10.33-54.56-26.95-61.36c0,8.73,0.19,17.27-0.04,25.79c-0.61,22.8-18.99,40.65-41.48,40.48
		c-22.1-0.17-40.14-17.93-40.75-40.34C498.74,779.48,498.93,770.92,498.93,761.28z M664.23,609.05
		c-2.2,23.36,1.21,27.17,23.49,27.17c71.7,0,143.4,0,215.1,0c7.14,0,14.29,0.22,21.42-0.09c8.18-0.37,13.26-5.4,13.81-13.46
		c0.3-4.44,0.05-8.91,0.05-13.61C846.3,609.05,755.55,609.05,664.23,609.05z M526.36,718.55c0,21.73-0.04,43.46,0.02,65.19
		c0.03,10.81,5.15,17.12,13.68,17.13c8.53,0.02,13.73-6.3,13.74-17.08c0.04-43.46,0.04-86.91,0-130.37
		c-0.01-10.81-5.15-17.11-13.68-17.13c-8.54-0.02-13.7,6.29-13.73,17.08C526.32,675.09,526.36,696.82,526.36,718.55z M828.01,664.38
		c-18.75,0-36.54,0-54.08,0c0,9.17,0,17.62,0,26.19c18.28,0,36.07,0,54.08,0C828.01,681.57,828.01,673.12,828.01,664.38z"/>
	<path class="st0" d="M691.09,265.63c-27.61,0-54.76-0.16-81.91,0.09c-9.48,0.09-14.15,5.89-14.17,16.59
		c-0.07,33.45-0.03,66.91-0.03,100.36c0,33.73,0,67.46,0,101.87c-8.94,0-17.61,0-27.45,0c0-2.84,0-5.86,0-8.88
		c0-64.05-0.02-128.1,0.01-192.14c0.01-28.59,16.71-45.32,45.22-45.36c26-0.03,52.01-0.01,78.63-0.01
		c6.44-46.4,28.95-82.24,69.47-105.67c28.78-16.63,60.03-21.77,92.68-15.51c67.95,13.03,114.7,72.55,111.94,141.82
		c-2.68,67.14-55.51,122.54-124.8,129.77C773.53,395.56,701.23,347.73,691.09,265.63z M855.73,237.84
		c-0.82-9.46-1.58-18.11-2.32-26.64c-17.24,0-33.39,0-50.24,0c-0.73,9.06-1.42,17.65-2.14,26.64
		C819.6,237.84,836.94,237.84,855.73,237.84z M803.23,292.34c17.3,0,33.64,0,50.31,0c0.71-9.09,1.37-17.49,2.03-25.99
		c-18.66,0-36.39,0-54.54,0C801.79,275.32,802.49,283.53,803.23,292.34z M773.48,237.73c0.7-9.17,1.35-17.8,2.06-27.03
		c-15.62,0-29.88-0.17-44.13,0.19c-2.12,0.05-5.4,2.18-6.06,4.07c-2.5,7.19-4.15,14.68-6.3,22.77
		C737.72,237.73,755.06,237.73,773.48,237.73z M937.73,237.91c-2.33-8.62-4.24-16.31-6.61-23.86c-0.44-1.41-2.73-3.15-4.19-3.17
		c-15.05-0.23-30.11-0.14-45.85-0.14c0.78,9.76,1.47,18.41,2.17,27.18C901.44,237.91,918.53,237.91,937.73,237.91z M775.6,293.05
		c-0.77-9.67-1.45-18.15-2.16-26.94c-18.01,0-35.55,0-54.43,0c2.2,8.17,3.93,15.63,6.37,22.86c0.59,1.76,3.47,3.86,5.34,3.9
		C745.25,293.19,759.78,293.05,775.6,293.05z M881.09,293.05c15.73,0,30.26,0.11,44.78-0.14c1.79-0.03,4.68-1.57,5.15-3.03
		c2.47-7.67,4.32-15.53,6.53-23.88c-19.08,0-36.42,0-54.3,0C882.54,274.84,881.86,283.32,881.09,293.05z M849.92,182.92
		c-5.69-12.91-10.48-24.61-16.02-35.95c-2.72-5.57-7.62-6.71-10.76-0.43c-5.74,11.49-10.64,23.4-16.45,36.39
		C821.87,182.92,834.31,182.92,849.92,182.92z M806.66,320.78c5.86,13.16,10.68,24.86,16.27,36.18c2.89,5.86,7.82,6.06,10.76,0.07
		c5.64-11.47,10.48-23.33,16.2-36.25C834.61,320.78,822.17,320.78,806.66,320.78z M789.47,149.31
		c-18.97,7.88-33.63,18.09-46.3,33.68c13.47,0,24.85,0,36.45,0C782.75,172.29,785.83,161.77,789.47,149.31z M913.49,182.79
		c-12.97-15.39-27.37-25.95-46.17-33.23c3.53,12.13,6.6,22.64,9.68,33.23C888.7,182.79,900.23,182.79,913.49,182.79z M877,320.77
		c-3.1,10.83-6.16,21.48-9.6,33.49c18.83-7.67,33.46-17.9,46.04-33.49C900.03,320.77,888.65,320.77,877,320.77z M743.98,320.8
		c10.44,15.1,33.21,30.88,44.91,31.54c-3.12-10.57-6.23-21.08-9.31-31.54C767.75,320.8,756.42,320.8,743.98,320.8z"/>
	<path class="st0" d="M334.19,265.6c4.08,0,7.17,0,10.25,0c41.17,0,82.33-0.03,123.5,0.01c27.48,0.03,44.65,16.95,44.67,44.17
		c0.06,58.02,0.02,116.05,0.02,174.76c-8.94,0-17.61,0-27.45,0c0-2.84,0-5.86,0-8.88c0-54.6,0.01-109.21-0.01-163.81
		c0-14.52-4.32-18.78-18.96-18.79c-41.17-0.02-82.33-0.01-123.5-0.01c-2.51,0-5.03,0-8.53,0c0,3.71,0,6.75,0,9.8
		c0,32.3,0.05,64.61-0.02,96.91c-0.06,27.24-17.19,44.24-44.6,44.27c-43.45,0.05-86.91,0.05-130.36,0
		c-27.45-0.03-44.61-17-44.63-44.23c-0.05-80.33-0.05-160.67,0-241c0.02-26.85,17.16-44.13,43.8-44.18
		c44.03-0.07,88.05-0.07,132.08,0c26.3,0.04,43.63,17.25,43.7,43.41C334.27,193.47,334.19,228.9,334.19,265.6z M306.35,197.57
		c-55.07,0-109.47,0-163.65,0c0,55.01,0,109.41,0,163.66c54.88,0,109.08,0,163.65,0C306.35,306.59,306.35,252.39,306.35,197.57z
		 M142.06,168.93c55.5,0,109.87,0,164.66,0c0-4.54,0.16-8.52-0.03-12.48c-0.43-8.68-5.36-14.24-13.85-14.27
		c-45.68-0.19-91.36-0.18-137.03,0c-8.14,0.03-13.16,5.43-13.69,13.53C141.83,159.94,142.06,164.2,142.06,168.93z M142.05,389.47
		c0,4.91-0.22,9.15,0.05,13.36c0.51,8.13,5.49,13.59,13.59,13.63c45.67,0.2,91.35,0.19,137.03,0.02c8.21-0.03,13.33-5.3,13.9-13.32
		c0.32-4.45,0.06-8.93,0.06-13.69C251.58,389.47,197.42,389.47,142.05,389.47z"/>
	<path class="st0" d="M485.69,513.11c8.74,0,17.19,0,26.29,0c0,8.55,0,17.21,0,26.45c-8.49,0-17.13,0-26.29,0
		C485.69,530.83,485.69,522.19,485.69,513.11z"/>
	<path class="st0" d="M568.18,513.03c8.96,0,17.4,0,26.33,0c0,8.99,0,17.63,0,26.69c-8.79,0-17.24,0-26.33,0
		C568.18,531.12,568.18,522.47,568.18,513.03z"/>
	<path class="st0" d="M512.21,568.09c0,8.74,0,17.19,0,26.29c-8.55,0-17.21,0-26.45,0c0-8.49,0-17.14,0-26.29
		C494.48,568.09,503.13,568.09,512.21,568.09z"/>
	<path class="st0" d="M567.87,594.63c0-9.04,0-17.48,0-26.49c8.86,0,17.5,0,26.64,0c0,8.79,0,17.43,0,26.49
		C585.71,594.63,577.26,594.63,567.87,594.63z"/>
	<path class="st0" d="M371.74,570.55c-6.44,6.52-12.42,12.57-18.92,19.15c-24.47-23.25-53.44-35.69-87.18-35.71
		c-33.53-0.02-62.33,12.17-86.22,34.77c-6.39-6.41-12.7-12.74-19.04-19.09C215.1,512.98,313.13,510.91,371.74,570.55z"/>
	<path class="st0" d="M265.62,636.25c22.77,0.03,41.31,18.82,41.09,41.64c-0.22,22.37-18.8,40.7-41.22,40.67
		c-22.75-0.03-41.31-18.85-41.08-41.65C224.63,654.52,243.18,636.22,265.62,636.25z M265.2,691.06c7.39,0.2,13.81-5.9,14-13.31
		c0.2-7.41-5.88-13.81-13.31-14c-7.41-0.2-13.8,5.88-14,13.31C251.7,684.45,257.78,690.86,265.2,691.06z"/>
	<path class="st0" d="M332.72,609.88c-6.05,5.95-12.12,11.92-18.49,18.19c-32.15-25.89-64.6-26.12-97.32,0.05
		c-6.12-6.25-12.21-12.45-18.29-18.66C231.41,572.31,302.34,572.44,332.72,609.88z"/>
</g>
</svg>
