<?xml version="1.0" encoding="utf-8"?>
<!-- Generator: Adobe Illustrator 26.0.3, SVG Export Plug-In . SVG Version: 6.00 Build 0)  -->
<svg version="1.1" id="Capa_1" xmlns="http://www.w3.org/2000/svg" xmlns:xlink="http://www.w3.org/1999/xlink" x="0px" y="0px"
	 viewBox="0 0 1080 1080" style="enable-background:new 0 0 1080 1080;" xml:space="preserve">
<style type="text/css">
	.st0{fill:#FFFFFF;}
</style>
<g>
	<g>
		<path class="st0" d="M551.7,276.46c64.51,0,116.99,52.48,116.99,116.99S616.2,510.43,551.7,510.43s-116.99-52.48-116.99-116.99
			S487.19,276.46,551.7,276.46 M551.7,253.06c-77.53,0-140.38,62.85-140.38,140.38s62.85,140.38,140.38,140.38
			s140.38-62.85,140.38-140.38S629.23,253.06,551.7,253.06L551.7,253.06z"/>
	</g>
	<g>
		<path class="st0" d="M551.7,557.22c125.79,0,228.12,102.33,228.12,228.12c0,45.3-100.2,80.79-228.12,80.79
			s-228.12-35.48-228.12-80.79C323.58,659.55,425.91,557.22,551.7,557.22 M551.7,533.82c-138.91,0-251.52,112.61-251.52,251.52
			c0,69.45,125.76,104.18,251.52,104.18s251.52-34.73,251.52-104.18C803.22,646.43,690.61,533.82,551.7,533.82L551.7,533.82z"/>
	</g>
	<g>
		<path class="st0" d="M276.78,213.87c47.43,0,86.02,38.59,86.02,86.02s-38.59,86.02-86.02,86.02s-86.02-38.59-86.02-86.02
			S229.35,213.87,276.78,213.87 M276.78,190.48c-60.43,0-109.42,48.99-109.42,109.42s48.99,109.42,109.42,109.42
			S386.2,360.33,386.2,299.89S337.21,190.48,276.78,190.48L276.78,190.48z"/>
	</g>
	<g>
		<path class="st0" d="M803.22,213.87c47.43,0,86.02,38.59,86.02,86.02s-38.59,86.02-86.02,86.02c-21.96,0-43.15-8.56-59.09-23.68
			c-4.07-25.09-13.09-49.33-26.41-70.94C722.09,248.03,759.11,213.87,803.22,213.87 M803.22,190.48
			c-59.64,0-108.04,47.74-109.3,107.08c14.93,22.07,24.81,47.79,28.11,75.51c20.03,22.21,48.93,36.25,81.19,36.25
			c60.43,0,109.42-48.99,109.42-109.42S863.65,190.48,803.22,190.48L803.22,190.48z"/>
	</g>
	<g>
		<path class="st0" d="M803.22,432.71c95.2,0,172.64,77.45,172.64,172.64c0,28.27-62.06,52.33-144.01,56.98
			c-26.8-60.79-72.97-111.54-130.6-144c17.89-21.45,31.1-46.6,38.48-73.55C759.92,436.77,781.22,432.71,803.22,432.71
			 M803.22,409.31c-29.87,0-58.16,6.71-83.5,18.66c-7.93,38.6-28.81,72.53-57.95,96.96c71.17,30.19,127.38,88.8,154.63,161.44
			c93.44-2.32,182.86-29.31,182.86-81.02C999.26,497.08,911.49,409.31,803.22,409.31L803.22,409.31z"/>
	</g>
	<g>
		<path class="st0" d="M276.78,432.71c32.51,0,63.91,9,91.28,26.11c7.77,21.78,19.29,41.89,34.04,59.53
			C344.25,550.96,297.94,602,271.2,663.13c-100.18-1.05-167.06-30.36-167.06-57.77C104.14,510.16,181.59,432.71,276.78,432.71
			 M276.78,409.31c-108.27,0-196.04,87.77-196.04,196.04c0,54.13,98.02,81.2,196.04,81.2c3.41,0,6.8-0.03,10.2-0.1
			c27.24-72.68,83.47-131.31,154.66-161.52c-25.11-21.05-44.08-49.15-53.93-81.21C356.15,422.03,317.96,409.31,276.78,409.31
			L276.78,409.31z"/>
	</g>
</g>
</svg>
