<?xml version="1.0" encoding="utf-8"?>
<!-- Generator: Adobe Illustrator 26.0.3, SVG Export Plug-In . SVG Version: 6.00 Build 0)  -->
<svg version="1.1" id="Capa_1" xmlns="http://www.w3.org/2000/svg" xmlns:xlink="http://www.w3.org/1999/xlink" x="0px" y="0px"
	 viewBox="0 0 1080 1080" style="enable-background:new 0 0 1080 1080;" xml:space="preserve">
<style type="text/css">
	.st0{fill:#FFFFFF;}
</style>
<path class="st0" d="M643.71,230.46c-120.69,0-228.32,56.68-297.91,144.75l-58.35-48.76V199.31L174.83,90.29v159.08l-118.17,35.6
	l133.15,100.26l97.64-28.34l44.4,37.1c-42.66,61.38-67.76,135.84-67.76,216.09c0,209.32,170.3,379.62,379.62,379.62
	s379.62-170.3,379.62-379.62S853.04,230.46,643.71,230.46z M643.71,966.34c-196.44,0-356.26-159.82-356.26-356.26
	c0-74.56,23.06-143.81,62.37-201.08l83.43,69.71c-23.89,38.13-37.75,83.15-37.75,131.36c0,136.87,111.35,248.21,248.21,248.21
	s248.21-111.35,248.21-248.21S780.58,361.87,643.71,361.87c-80.25,0-151.69,38.32-197.09,97.58l-82.89-69.26
	c65.29-82.94,166.48-136.36,279.98-136.36c196.44,0,356.26,159.82,356.26,356.26S840.15,966.34,643.71,966.34z M565.63,558.89
	c16.72-25.42,45.45-42.26,78.09-42.26c51.53,0,93.45,41.92,93.45,93.45c0,51.53-41.92,93.45-93.45,93.45
	c-51.53,0-93.45-41.92-93.45-93.45c0-10.32,1.75-20.23,4.86-29.52l46.06,38.49l14.98-17.92L565.63,558.89z M643.71,726.89
	c64.41,0,116.81-52.4,116.81-116.81s-52.4-116.81-116.81-116.81c-39.82,0-75,20.06-96.1,50.57l-83.07-69.42
	c41.1-54.15,106.11-89.19,179.17-89.19c123.99,0,224.85,100.87,224.85,224.85S767.7,834.94,643.71,834.94
	S418.86,734.07,418.86,610.08c0-42.52,11.87-82.32,32.46-116.26l84.78,70.84c-5.92,13.97-9.19,29.32-9.19,45.42
	C526.9,674.49,579.3,726.89,643.71,726.89z"/>
</svg>
