<svg xmlns="http://www.w3.org/2000/svg" width="666.924" height="392.878" viewBox="0 0 666.924 392.878">
  <g id="Grupo_3" data-name="Grupo 3" transform="translate(-2443.752 -343.561)">
    <g id="Grupo_1" data-name="Grupo 1">
      <path id="Trazado_1" data-name="Trazado 1" d="M2482.093,715.187V685.318l-11.465,15.337a4.239,4.239,0,0,1-6.865,0L2452.3,685.318v29.869a4.273,4.273,0,0,1-8.545,0V672.538a4.255,4.255,0,0,1,4.309-4.236,4.118,4.118,0,0,1,3.36,1.68l15.774,21.033,15.774-21.033a4.116,4.116,0,0,1,3.359-1.68,4.254,4.254,0,0,1,4.309,4.236v42.649a4.272,4.272,0,0,1-8.544,0Z" fill="#fff"/>
      <path id="Trazado_2" data-name="Trazado 2" d="M2526.271,715.187a4.287,4.287,0,0,1-4.236,4.236,4.176,4.176,0,0,1-3.8-2.337,18.715,18.715,0,0,1-5.04,1.753,25.737,25.737,0,0,1-4.6.511c-6.207,0-10.515-3.14-11.83-8.691a9.071,9.071,0,0,1-.292-2.41,9.163,9.163,0,0,1,1.9-5.623c1.679-2.191,5.185-4.819,13.072-5.112,1.095,0,2.118-.073,3.213-.073a18.99,18.99,0,0,1,2.775.147,4.446,4.446,0,0,0-1.46-2.849,7.925,7.925,0,0,0-3.652-.876,12.107,12.107,0,0,0-7.084,2.483,4.213,4.213,0,0,1-2.7.949,4.189,4.189,0,0,1-4.235-4.235,4.154,4.154,0,0,1,1.533-3.287,19.086,19.086,0,0,1,10.443-4.309,18.62,18.62,0,0,1,9.859,1.826c5.843,3.287,6.062,10.955,6.062,11.758v11.465Zm-9.129-9.056a17.806,17.806,0,0,0-2.483-.146c-.949,0-1.972,0-3.725.073-3.359.146-5.258,1.023-5.769,1.68a1.088,1.088,0,0,0-.219.584,3.162,3.162,0,0,1,.073.365c.219.877.511,2.118,3.578,2.118a14.191,14.191,0,0,0,2.776-.292.552.552,0,0,1,.292-.073,7.351,7.351,0,0,0,5.112-3.432Z" fill="#fff"/>
      <path id="Trazado_3" data-name="Trazado 3" d="M2549.126,689.627a4.239,4.239,0,0,1-4.236,4.236c-1.387,0-3.213.219-3.943,1.315a2.618,2.618,0,0,0-.292.8v19.206a4.273,4.273,0,0,1-8.545,0v-25.56a4.255,4.255,0,0,1,4.236-4.309,4.061,4.061,0,0,1,2.775,1.023,15.1,15.1,0,0,1,5.769-1.023A4.255,4.255,0,0,1,2549.126,689.627Z" fill="#fff"/>
      <path id="Trazado_4" data-name="Trazado 4" d="M2581.4,712.12a4.071,4.071,0,0,1,1.241,3.067,4.233,4.233,0,0,1-7.229,2.994l-11.9-11.9v8.91a4.3,4.3,0,0,1-4.309,4.236,4.239,4.239,0,0,1-4.236-4.236V672.538a4.239,4.239,0,0,1,4.236-4.236,4.3,4.3,0,0,1,4.309,4.236v25.926l11.9-11.9a4.191,4.191,0,0,1,2.994-1.169,4.315,4.315,0,0,1,2.994,1.169,4.568,4.568,0,0,1,1.241,3.067,4.264,4.264,0,0,1-1.241,2.995l-9.786,9.785Z" fill="#fff"/>
      <path id="Trazado_5" data-name="Trazado 5" d="M2600.169,719.35a14.641,14.641,0,0,1-10.954-5.4,18.529,18.529,0,0,1-3.652-11.612c0-9.42,6.719-17.016,14.9-17.016a14.049,14.049,0,0,1,10.662,4.82,16.723,16.723,0,0,1,4.236,11.466,4.3,4.3,0,0,1-4.236,4.308h-16.577c.73,2.337,2.337,4.82,6.061,4.966h.438a8.142,8.142,0,0,0,4.966-1.314,4.533,4.533,0,0,1,2.337-.658,4.25,4.25,0,0,1,3.579,1.9,3.653,3.653,0,0,1,.73,2.264,4.445,4.445,0,0,1-1.972,3.652,16.673,16.673,0,0,1-9.2,2.7A6.329,6.329,0,0,1,2600.169,719.35Zm5.769-21.982a6.067,6.067,0,0,0-5.477-3.578c-2.044,0-3.943,1.461-5.112,3.578Z" fill="#fff"/>
      <path id="Trazado_6" data-name="Trazado 6" d="M2643.837,689.627a4.238,4.238,0,0,1-4.235,4.236h-4.308v21.324a4.236,4.236,0,1,1-8.472,0V693.863h-4.309a4.273,4.273,0,0,1,0-8.545h4.309v-12.78a4.236,4.236,0,1,1,8.472,0v12.78h4.308A4.254,4.254,0,0,1,2643.837,689.627Z" fill="#fff"/>
      <path id="Trazado_7" data-name="Trazado 7" d="M2653.913,679.038a4.273,4.273,0,0,1,0-8.545,4.273,4.273,0,1,1,0,8.545Zm-4.236,36.149v-25.56a4.3,4.3,0,0,1,4.236-4.309,4.365,4.365,0,0,1,4.309,4.309v25.56a4.3,4.3,0,0,1-4.309,4.236A4.239,4.239,0,0,1,2649.677,715.187Z" fill="#fff"/>
      <path id="Trazado_8" data-name="Trazado 8" d="M2693.859,689.627v25.56a4.173,4.173,0,0,1-2.775,3.944,3.817,3.817,0,0,1-1.534.292,4.236,4.236,0,0,1-3.213-1.534l-13.73-16.5v13.8a4.273,4.273,0,0,1-8.545,0v-25.56a4.2,4.2,0,0,1,2.775-4.016,3.806,3.806,0,0,1,1.534-.293,4.237,4.237,0,0,1,3.213,1.534l13.8,16.5V689.627a4.237,4.237,0,1,1,8.472,0Z" fill="#fff"/>
      <path id="Trazado_9" data-name="Trazado 9" d="M2731.612,719.423a17.731,17.731,0,0,1-3.944,11.247,15.669,15.669,0,0,1-12.05,5.769H2714.6a16.061,16.061,0,0,1-12.124-7.449,4.231,4.231,0,0,1,1.315-5.842,4.008,4.008,0,0,1,2.337-.731,4.2,4.2,0,0,1,3.506,1.972,7.31,7.31,0,0,0,5.55,3.506h.438a7.291,7.291,0,0,0,5.477-2.629,9.324,9.324,0,0,0,2.045-5.843v-1.972a15.321,15.321,0,0,1-7.449,1.972c-8.837,0-15.994-7.668-15.994-17.089,0-9.347,7.157-17.016,15.994-17.016a15.271,15.271,0,0,1,7.961,2.264,4.22,4.22,0,0,1,7.96,1.972v29.869Zm-8.472-17.089c0-4.673-3.359-8.471-7.449-8.471-4.163,0-7.449,3.8-7.449,8.471,0,4.747,3.286,8.544,7.449,8.544C2719.781,710.878,2723.14,707.081,2723.14,702.334Z" fill="#fff"/>
      <path id="Trazado_10" data-name="Trazado 10" d="M2795.507,712.485a4.024,4.024,0,0,1,.949,2.629,4.367,4.367,0,0,1-1.607,3.36,4.214,4.214,0,0,1-2.7.949,4.009,4.009,0,0,1-3.286-1.607l-3.506-4.382a22.487,22.487,0,0,1-1.971,2.191,15.89,15.89,0,0,1-10.3,3.8,16.225,16.225,0,0,1-16.066-16.359,16.424,16.424,0,0,1,8.618-14.459,13.7,13.7,0,0,1-1.826-6.792,13.474,13.474,0,1,1,26.948,0v1.022a13.66,13.66,0,0,1-9.567,11.831l4.528,5.623,4.089-4.6a4.057,4.057,0,0,1,3.141-1.388,4.222,4.222,0,0,1,2.848,1.1,4.056,4.056,0,0,1,1.387,3.14,4.154,4.154,0,0,1-1.022,2.848l-5.039,5.623Zm-15.556-5.769-8.909-11.173a7.855,7.855,0,0,0,2.044,15.335,6.881,6.881,0,0,0,4.528-1.606Zm-7.668-24.9a4.787,4.787,0,0,0,1.095,3.067l1.534,1.9h2.264a5.035,5.035,0,0,0,5.039-4.966v-.657a4.989,4.989,0,0,0-9.932.657Z" fill="#fff"/>
      <path id="Trazado_11" data-name="Trazado 11" d="M2822.594,715.187V672.538a4.239,4.239,0,0,1,4.236-4.236h11.612a20.58,20.58,0,0,1,8.325,2.045c5.7,2.848,8.836,8.106,8.836,14.971a20.362,20.362,0,0,1-2.044,8.326c-2.848,5.623-8.252,8.763-15.117,8.763h-7.3v12.78a4.273,4.273,0,0,1-8.545,0Zm8.545-21.324h7.3c3.652,0,5.989-1.241,7.376-3.871a11.451,11.451,0,0,0,1.242-4.674c0-3.651-1.315-5.988-4.09-7.376a11.362,11.362,0,0,0-4.528-1.1h-7.3Z" fill="#fff"/>
      <path id="Trazado_12" data-name="Trazado 12" d="M2888.683,689.627V706.2a14.866,14.866,0,0,1-1.607,6.427c-2.337,4.382-6.573,6.792-11.977,6.792-5.477,0-9.713-2.41-11.977-6.792a14.284,14.284,0,0,1-1.68-6.427V689.627a4.256,4.256,0,0,1,4.236-4.309,4.317,4.317,0,0,1,4.309,4.309V706.2a6.759,6.759,0,0,0,.73,2.7c.584.95,1.534,1.972,4.382,1.972,2.775,0,3.8-1.022,4.309-1.972a6.156,6.156,0,0,0,.8-2.7V689.627a4.237,4.237,0,1,1,8.472,0Z" fill="#fff"/>
      <path id="Trazado_13" data-name="Trazado 13" d="M2926.436,702.407c0,9.348-7.157,17.016-15.921,17.016a14.878,14.878,0,0,1-7.96-2.264,4.335,4.335,0,0,1-3.8,2.264,4.238,4.238,0,0,1-4.235-4.236V672.538a4.272,4.272,0,0,1,8.544,0V687.29a15.123,15.123,0,0,1,7.449-1.972C2919.279,685.318,2926.436,692.987,2926.436,702.407Zm-8.472,0c0-4.746-3.359-8.544-7.449-8.544-4.163,0-7.449,3.8-7.449,8.544,0,4.674,3.286,8.471,7.449,8.471C2914.6,710.878,2917.964,707.081,2917.964,702.407Z" fill="#fff"/>
      <path id="Trazado_14" data-name="Trazado 14" d="M2936.51,679.038a4.273,4.273,0,0,1,0-8.545,4.273,4.273,0,1,1,0,8.545Zm-4.235,36.149v-25.56a4.3,4.3,0,0,1,4.235-4.309,4.365,4.365,0,0,1,4.309,4.309v25.56a4.3,4.3,0,0,1-4.309,4.236A4.239,4.239,0,0,1,2932.275,715.187Z" fill="#fff"/>
      <path id="Trazado_15" data-name="Trazado 15" d="M2946.66,702.407c0-9.42,7.157-17.089,15.993-17.089a14.958,14.958,0,0,1,6.573,1.534,4.076,4.076,0,0,1,2.41,3.8,3.958,3.958,0,0,1-.438,1.825,4.111,4.111,0,0,1-5.624,2.045,6.818,6.818,0,0,0-2.921-.657c-4.089,0-7.448,3.8-7.448,8.544,0,4.674,3.359,8.471,7.448,8.471a6.819,6.819,0,0,0,2.921-.657,3.792,3.792,0,0,1,1.753-.365,4.257,4.257,0,0,1,3.871,2.41,3.959,3.959,0,0,1,.438,1.826,4.255,4.255,0,0,1-2.41,3.87,15.938,15.938,0,0,1-6.573,1.461C2953.817,719.423,2946.66,711.755,2946.66,702.407Z" fill="#fff"/>
      <path id="Trazado_16" data-name="Trazado 16" d="M2981.712,679.038a4.273,4.273,0,0,1,0-8.545,4.273,4.273,0,1,1,0,8.545Zm-4.236,36.149v-25.56a4.3,4.3,0,0,1,4.236-4.309,4.365,4.365,0,0,1,4.309,4.309v25.56a4.3,4.3,0,0,1-4.309,4.236A4.239,4.239,0,0,1,2977.476,715.187Z" fill="#fff"/>
      <path id="Trazado_17" data-name="Trazado 17" d="M3008.877,685.318a16.825,16.825,0,0,1,8.544,2.337V672.538a4.273,4.273,0,0,1,8.545,0v42.649a4.29,4.29,0,0,1-8.18,1.753,17.339,17.339,0,0,1-8.909,2.483,17.053,17.053,0,0,1,0-34.1Zm0,25.56a8.508,8.508,0,1,0-8.471-8.471A8.492,8.492,0,0,0,3008.877,710.878Z" fill="#fff"/>
      <path id="Trazado_18" data-name="Trazado 18" d="M3061.6,715.187a4.286,4.286,0,0,1-4.235,4.236,4.176,4.176,0,0,1-3.8-2.337,18.718,18.718,0,0,1-5.04,1.753,25.74,25.74,0,0,1-4.6.511c-6.207,0-10.516-3.14-11.831-8.691a9.071,9.071,0,0,1-.292-2.41,9.17,9.17,0,0,1,1.9-5.623c1.68-2.191,5.185-4.819,13.073-5.112,1.1,0,2.118-.073,3.213-.073a18.987,18.987,0,0,1,2.775.147,4.446,4.446,0,0,0-1.46-2.849,7.923,7.923,0,0,0-3.652-.876,12.106,12.106,0,0,0-7.084,2.483,4.215,4.215,0,0,1-2.7.949,4.259,4.259,0,0,1-3.287-1.533,4.215,4.215,0,0,1-.949-2.7,4.152,4.152,0,0,1,1.534-3.287,19.086,19.086,0,0,1,10.443-4.309,18.62,18.62,0,0,1,9.859,1.826c5.842,3.287,6.061,10.955,6.061,11.758v11.465Zm-9.128-9.056a17.8,17.8,0,0,0-2.483-.146c-.949,0-1.972,0-3.725.073-3.359.146-5.258,1.023-5.769,1.68a1.088,1.088,0,0,0-.219.584,3.152,3.152,0,0,1,.073.365c.219.877.511,2.118,3.578,2.118a14.19,14.19,0,0,0,2.776-.292.553.553,0,0,1,.292-.073,7.35,7.35,0,0,0,5.112-3.432Z" fill="#fff"/>
      <path id="Trazado_19" data-name="Trazado 19" d="M3084.456,685.318a16.825,16.825,0,0,1,8.544,2.337V672.538a4.272,4.272,0,0,1,8.544,0v42.649a4.289,4.289,0,0,1-8.179,1.753,17.34,17.34,0,0,1-8.909,2.483,17.053,17.053,0,0,1,0-34.1Zm0,25.56a8.508,8.508,0,1,0-8.472-8.471A8.493,8.493,0,0,0,3084.456,710.878Z" fill="#fff"/>
    </g>
    <path id="Trazado_20" data-name="Trazado 20" d="M2576.823,454.094q-.3-12.844-.438-25.256t-.73-25.256q-.3-3.21-.726-6.571a14.06,14.06,0,0,0-2.468-6.277,14.59,14.59,0,0,0-8.709-5.693,62.4,62.4,0,0,0-11.315-1.607q-3.2,0-6.095.147a15.854,15.854,0,0,0-11.319,6.132,32.644,32.644,0,0,0-3.773,6.277,37.836,37.836,0,0,0-3.193,15.329,137.108,137.108,0,0,1-.872,15.621,113.8,113.8,0,0,0-.146,19.125q.726,9.786,1.022,19.124,0,8.76.146,17.665t.146,17.665c0,2.145.046,4.234.146,6.278s.146,4.138.146,6.278q-.876,16.937-2.628,32.7a20.418,20.418,0,0,1-1.168,7.008,14.03,14.03,0,0,1-8.759,8.468,9.123,9.123,0,0,1-6.423,0q-3.5-1.458-4.964-6.132a36.418,36.418,0,0,1-2.774-15.913q.438-8.028,1.022-16.2.582-7.884.73-16.205t-.438-16.2a180.511,180.511,0,0,1-1.022-21.9q.144-11.092.876-22.19t1.46-22.191q.725-11.093.73-22.19a47.549,47.549,0,0,0-.438-6.424,10.4,10.4,0,0,0-2.482-5.548,13.766,13.766,0,0,0-3.5-2.336,16.391,16.391,0,0,0-3.649-1.313c-1.269-.292-2.482-.63-3.65-1.023q-4.968-.876-9.635-1.313a43,43,0,0,0-9.344.145,30.491,30.491,0,0,0-9.343,2.628,17.217,17.217,0,0,0-7.008,5.84,19.971,19.971,0,0,0-3.358,8.176q-.732,4.38-1.314,9.051-1.752,24.526-1.9,48.615t-.146,48.907q-.294,15.767-.292,31.388V570.3a70.366,70.366,0,0,0,1.606,15.183,77.183,77.183,0,0,0,4.818,14.6,10.475,10.475,0,0,0,2.482,6.424,26.315,26.315,0,0,0,6.131,5.693,59.69,59.69,0,0,0,7.592,4.38,32.172,32.172,0,0,0,6.57,2.482,23.666,23.666,0,0,0,8.759.73,56.425,56.425,0,0,1,9.052-.146h13.723a34.646,34.646,0,0,0,5.4-.438,6.524,6.524,0,0,1,5.11,1.314,7.2,7.2,0,0,1,2.774,3.942,29.773,29.773,0,0,1,1.021,5.255,46.964,46.964,0,0,0,.876,5.4,8.712,8.712,0,0,0,2.336,4.38,9.4,9.4,0,0,0,5.516,2.773,28.229,28.229,0,0,0,6.383.147q5.516,0,11.027-.439a44.868,44.868,0,0,0,10.744-2.189q1.451-.59,3.043-1.315a7.521,7.521,0,0,0,2.76-2.189,11.908,11.908,0,0,0,3.334-4.672,33.849,33.849,0,0,0,1.6-5.548,112.918,112.918,0,0,0,3.193-23.942q.287-11.97.872-24.235.58-13.138.584-26.132t-.292-26.132q-.3-6.42-.438-12.7t-.438-12.993a60.592,60.592,0,0,1,.292-10.365q.58-5.1,1.168-10.365a93.57,93.57,0,0,0,.292-12.7Q2576.819,460.228,2576.823,454.094Z" fill="#fff"/>
    <path id="Trazado_21" data-name="Trazado 21" d="M2954.675,528.842a32.986,32.986,0,0,0-12.264-.584,52.345,52.345,0,0,0-11.68,3.211,8.661,8.661,0,0,0-4.962,8.176q-.3,4.379-.584,8.614t-.584,8.613a9.785,9.785,0,0,1-.584,3.357,6.289,6.289,0,0,1-2.044,2.775h-5.4q-3.94,0-8.174-.147t-8.176-.292q-3.942-.144-5.4-.145-9.054-.876-9.635-10.22a48.139,48.139,0,0,1-.146-6.569q.144-3.354.438-6.862.286-7.884.73-15.913t.73-16.205q0-5.836-.584-11.825T2885.767,483q0-17.52.876-34.746a13.962,13.962,0,0,1,2.92-8.76q.58-1.164,3.941-1.606t4.818-.73a28.524,28.524,0,0,1,4.234.292,27.768,27.768,0,0,0,4.233.292c.775.2,1.46.343,2.044.438a2.66,2.66,0,0,1,1.46.73h.292a6.413,6.413,0,0,1,1.168,4.088v8.76q.287,2.046.438,3.941a5.959,5.959,0,0,0,1.314,3.358,6.5,6.5,0,0,0,3.941,2.627q2.48.59,5.111,1.168a118.508,118.508,0,0,0,13.138.439q6.42-.144,13.14-.731a33.042,33.042,0,0,0,3.357-.729,8.488,8.488,0,0,0,3.066-1.606q3.21-2.916,3.066-9.051t.146-10.22q.58-5.838.584-11.533a115.171,115.171,0,0,1,.584-11.534,18.383,18.383,0,0,1,.146-2.335q.144-1.164.438-2.628a22.618,22.618,0,0,0-.584-14.307q-.588-1.458-1.46-3.212c-.584-1.168-1.072-2.235-1.46-3.212a12.731,12.731,0,0,0-4.234-5.84,14.742,14.742,0,0,0-6.569-2.628q-3.8-.581-7.3-1.168t-7.3-.876q-11.1-.287-21.9-.437t-21.9-.147q-8.473,0-17.519-.145a61.9,61.9,0,0,0-17.519,2.189,35.135,35.135,0,0,0-10.074,4.672,19.925,19.925,0,0,0-7.153,8.176,24.354,24.354,0,0,0-2.336,10.511,104.83,104.83,0,0,0,.584,11.1q2.039,22.774,2.189,45.4t-.292,45.257q-.438,22.631-.729,45.257t1.168,45.4a17.2,17.2,0,0,0,6.424,12.847,25.663,25.663,0,0,0,11.678,4.964,85.411,85.411,0,0,0,14.016,1.168q7.008,0,13.723-.584,4.085-.294,10.657-.584t13.577-.584q7.008-.294,13.577-.584t10.658-.292q6.419-.294,12.555-.73a42.968,42.968,0,0,0,12.264-2.774,22.009,22.009,0,0,0,6.715-3.649,23.089,23.089,0,0,0,4.672-5.4,21.067,21.067,0,0,0,2.773-8.322q.438-4.228.73-8.613,0-4.38.146-8.76t.438-8.467q.582-5.544.73-10.8a81.773,81.773,0,0,0-.438-10.8Q2968.981,532.349,2954.675,528.842Z" fill="#fff"/>
    <path id="Trazado_22" data-name="Trazado 22" d="M3110.3,397.742q-.59-2.334-1.315-4.818a9.811,9.811,0,0,0-2.481-4.234,10.829,10.829,0,0,0-6.716-3.5,58.136,58.136,0,0,0-8.176-.584q-4.967.3-10.365,1.023a20.886,20.886,0,0,0-9.489,3.649,20.5,20.5,0,0,0-6.278,5.986q-2.484,3.654-4.817,7.738-2.628,4.091-5.256,8.467l-5.256,8.759q-2.34,4.094-4.38,8.03a41.582,41.582,0,0,1-4.963,7.445,8.093,8.093,0,0,0-2.044-2.336,5.743,5.743,0,0,1-1.752-2.043,153.869,153.869,0,0,0-8.322-14.6,108.775,108.775,0,0,1-8.029-14.89,44.271,44.271,0,0,0-5.985-10.073,21.908,21.908,0,0,0-8.905-7.155,42.359,42.359,0,0,0-4.527-.876,34.873,34.873,0,0,0-4.525-.292l-14.016.876a35.12,35.12,0,0,0-9.489,2.483,11.059,11.059,0,0,0-6.277,6.277,10.52,10.52,0,0,0-.439,7.884,46.538,46.538,0,0,0,3.358,7.883q11.094,21.612,22.483,42.775T3015.7,493.8a2.606,2.606,0,0,1-.292,1.168q-7.3,20.148-14.453,40.44t-14.161,40.731q-2.046,4.969-3.649,10.22t-2.775,10.8a47.1,47.1,0,0,0-.729,6.132,26.477,26.477,0,0,0,.437,6.131,13.049,13.049,0,0,0,2.483,5.694,14.615,14.615,0,0,0,4.525,3.942,12.915,12.915,0,0,0,4.234,1.022c1.46.1,2.965.242,4.526.438h6.861a25.993,25.993,0,0,0,6.861-.876,31.32,31.32,0,0,0,9.636-4.526,42.353,42.353,0,0,0,7.884-7.153,58.839,58.839,0,0,0,5.693-8.76q2.478-4.668,4.818-9.635,4.667-10.8,8.467-21.753t7.884-22.045a211.224,211.224,0,0,1,9.2-20.876,139.929,139.929,0,0,0,8.613-21.169,259.887,259.887,0,0,1,9.489-26.133q5.4-12.7,11.533-24.963,3.5-6.714,6.716-13.578a119.194,119.194,0,0,0,5.548-14.161q1.163-3.209,2.628-6.424a37,37,0,0,0,2.336-7.007A46.019,46.019,0,0,0,3110.3,397.742Z" fill="#fff"/>
    <path id="Trazado_23" data-name="Trazado 23" d="M2725.733,467.525q-.588-12.844-.876-25.548t-.584-25.549c0-1.167.046-2.335.146-3.5s.146-2.336.146-3.5q.288-6.13.292-12.263a13.488,13.488,0,0,0-.152-1.911l.106-.035q-1.146-11.619-3.3-23.043-.543-2.111-.943-4.231a12.157,12.157,0,0,0-1.484-3.927,15.024,15.024,0,0,0-7.285-6.043,30.335,30.335,0,0,0-9.173-2.115,38.329,38.329,0,0,0-12.14.755,15.971,15.971,0,0,0-9.983,6.8A22.956,22.956,0,0,0,2677,374.888a93.441,93.441,0,0,0,.27,12.388c.236,2.653-1.589,21.258-1.464,23.9q-.589,7.883-.584,15.913T2674.929,443a15.682,15.682,0,0,1-.147,2.19,20.065,20.065,0,0,0-.145,2.774q-6.132-7.59-12.118-14.6a180.6,180.6,0,0,1-11.242-14.6q-5.255-7.589-9.927-15.474t-9.635-16.06q-.876-.287-1.9-.584t-2.482-.584a62.565,62.565,0,0,0-13.285-1.46,102.613,102.613,0,0,0-13.285.876q-5.845.3-8.176,6.132c-.584,1.561-1.122,3.066-1.606,4.526s-.926,2.97-1.313,4.526q-.589,6.132-1.168,12.263t-.876,12.555q-.59,9.928-.73,19.709t-1.022,19.708q-.876,11.977-1.752,23.651t-.584,23.651q.286,14.891,1.022,29.781a277.326,277.326,0,0,1-.146,29.782,175.009,175.009,0,0,0-.22,25.539c-.022.222-.036.443-.059.664a83.494,83.494,0,0,0-.3,12.389,21.244,21.244,0,0,0,3.928,11.481,18.08,18.08,0,0,0,11.18,6.8,48,48,0,0,0,13.6.755,37.46,37.46,0,0,0,10.273-2.115,16.532,16.532,0,0,0,8.159-6.043,11.4,11.4,0,0,0,1.661-3.928c.3-1.411.651-2.823,1.057-4.23q1.743-8.22,2.878-16.545c.184-.066.366-.131.553-.2.068-1.933.131-3.857.2-5.787.019-.172.044-.344.063-.516h-.046q.427-12.4.8-24.69,1.458-40.875.876-81.755l.584.584a38.819,38.819,0,0,1,7.3,7.591q3.21,4.378,6.131,8.906t5.986,9.2a64.871,64.871,0,0,0,6.57,8.467q1.163,1.17,2.189,2.336a9.23,9.23,0,0,1,1.607,2.628,13.657,13.657,0,0,1,.584,4.672q.58,9.634.729,19.417t.731,19.709q.58,8.757,1.6,17.664t1.315,17.665q.876,12.551,11.386,16.643a55.141,55.141,0,0,0,15.768,3.795,20.331,20.331,0,0,0,9.051-.875q4.38-1.464,8.759-2.92a7.382,7.382,0,0,0,4.38-6.132q.288-2.34.438-4.963t.146-4.964a130.533,130.533,0,0,0,.292-15.037,128.83,128.83,0,0,1,.292-15.038q.876-11.967,1.46-23.795t.584-23.8q0-14.6-.438-28.907T2725.733,467.525Z" fill="#fff"/>
    <g id="Grupo_2" data-name="Grupo 2">
      <path id="Trazado_24" data-name="Trazado 24" d="M2796.938,416.721l-7.257-37.583c-11.848,25.165-24.218,39.056-30.152,44.807-6.956,13.062-23.1,48.779-14.327,84.925C2761.658,492.623,2786.814,461.63,2796.938,416.721Z" fill="#fff"/>
      <path id="Trazado_25" data-name="Trazado 25" d="M2788,370.417l-4.635-24.006a3.516,3.516,0,0,0-6.905,0l-12.547,64.984C2770.71,402.973,2779.675,389.658,2788,370.417Z" fill="#fff"/>
      <path id="Trazado_26" data-name="Trazado 26" d="M2816.548,498.147c3.722-32.111-9.84-62.1-16.153-74-12.7,48.3-42.042,79.977-57.552,93.974-5.078,13.967-15.319,46.583-16.51,85.191a14.586,14.586,0,0,0,2.23,8.214C2744.249,599.677,2804.426,551.313,2816.548,498.147Z" fill="#fff"/>
      <path id="Trazado_27" data-name="Trazado 27" d="M2816.238,516.119c-19.167,47.872-69.1,87.909-84.2,99.224a14.3,14.3,0,0,0,6.675,2.812l8.3,1.189a232.073,232.073,0,0,0,65.777,0l8.3-1.189a14.487,14.487,0,0,0,12.384-14.846C2832.234,562.71,2820.977,528.749,2816.238,516.119Z" fill="#fff"/>
    </g>
  </g>
</svg>
