<svg xmlns="http://www.w3.org/2000/svg" xmlns:xlink="http://www.w3.org/1999/xlink" width="513" height="291" viewBox="0 0 513 291"><defs><clipPath id="b"><rect width="513" height="291"/></clipPath></defs><g id="a" clip-path="url(#b)"><g transform="translate(-703 -121)"><path d="M23.206,353.118V335.04l-6.94,9.282a2.564,2.564,0,0,1-4.155,0L5.172,335.04v18.078a2.576,2.576,0,0,1-2.608,2.564A2.566,2.566,0,0,1,0,353.118V327.3a2.575,2.575,0,0,1,2.608-2.564,2.492,2.492,0,0,1,2.034,1.017l9.547,12.729,9.548-12.729a2.491,2.491,0,0,1,2.033-1.017,2.575,2.575,0,0,1,2.608,2.564v25.813a2.586,2.586,0,0,1-5.171,0" transform="translate(758 19.897)" fill="#ffa900"/><path d="M70.757,359.864a2.6,2.6,0,0,1-2.564,2.564,2.528,2.528,0,0,1-2.3-1.414,11.327,11.327,0,0,1-3.05,1.061,15.577,15.577,0,0,1-2.785.309c-3.757,0-6.365-1.9-7.16-5.26a5.49,5.49,0,0,1-.177-1.459,5.548,5.548,0,0,1,1.149-3.4c1.017-1.326,3.138-2.917,7.912-3.094.663,0,1.282-.044,1.945-.044a11.571,11.571,0,0,1,1.68.088,2.691,2.691,0,0,0-.884-1.724,4.8,4.8,0,0,0-2.21-.53,7.328,7.328,0,0,0-4.288,1.5,2.551,2.551,0,0,1-1.635.575,2.578,2.578,0,0,1-1.989-.928,2.551,2.551,0,0,1-.574-1.635,2.513,2.513,0,0,1,.928-1.989,11.547,11.547,0,0,1,6.321-2.607,11.273,11.273,0,0,1,5.967,1.1c3.536,1.989,3.669,6.63,3.669,7.116v6.94Zm-5.525-5.481a10.773,10.773,0,0,0-1.5-.088c-.574,0-1.194,0-2.255.044-2.033.088-3.182.619-3.492,1.017a.659.659,0,0,0-.133.353,1.914,1.914,0,0,1,.044.221c.133.531.309,1.282,2.166,1.282a8.59,8.59,0,0,0,1.68-.177.334.334,0,0,1,.177-.044,4.449,4.449,0,0,0,3.094-2.077Z" transform="translate(737.187 13.151)" fill="#ffa900"/><path d="M98.657,344.364a2.566,2.566,0,0,1-2.564,2.564c-.84,0-1.945.133-2.387.8a1.584,1.584,0,0,0-.177.486v11.624a2.586,2.586,0,0,1-5.171,0v-15.47a2.575,2.575,0,0,1,2.563-2.608,2.457,2.457,0,0,1,1.68.619,9.141,9.141,0,0,1,3.492-.619,2.576,2.576,0,0,1,2.564,2.608" transform="translate(723.12 13.18)" fill="#ffa900"/><path d="M127.214,351.262a2.464,2.464,0,0,1,.751,1.856,2.563,2.563,0,0,1-4.376,1.812l-7.2-7.2v5.393a2.6,2.6,0,0,1-2.608,2.564,2.566,2.566,0,0,1-2.564-2.564V327.3a2.566,2.566,0,0,1,2.564-2.564,2.6,2.6,0,0,1,2.608,2.564V343l7.2-7.2a2.537,2.537,0,0,1,1.812-.708,2.613,2.613,0,0,1,1.813.708,2.765,2.765,0,0,1,.751,1.856,2.579,2.579,0,0,1-.751,1.812l-5.924,5.923Z" transform="translate(714.098 19.897)" fill="#ffa900"/><path d="M150.651,362.354a8.862,8.862,0,0,1-6.63-3.271,11.215,11.215,0,0,1-2.21-7.028c0-5.7,4.066-10.3,9.017-10.3a8.5,8.5,0,0,1,6.453,2.917,10.122,10.122,0,0,1,2.564,6.94,2.6,2.6,0,0,1-2.564,2.608H147.247a3.835,3.835,0,0,0,3.669,3.006h.265a4.929,4.929,0,0,0,3.006-.8,2.744,2.744,0,0,1,1.414-.4,2.573,2.573,0,0,1,2.166,1.149,2.211,2.211,0,0,1,.442,1.37,2.69,2.69,0,0,1-1.194,2.21,10.092,10.092,0,0,1-5.569,1.635,3.83,3.83,0,0,1-.8-.044m3.492-13.3a3.672,3.672,0,0,0-3.315-2.166,3.755,3.755,0,0,0-3.095,2.166Z" transform="translate(702.019 13.18)" fill="#ffa900"/><path d="M190,337.647a2.566,2.566,0,0,1-2.564,2.564h-2.607v12.906a2.564,2.564,0,0,1-5.128,0V340.211h-2.608a2.586,2.586,0,0,1,0-5.172H179.7V327.3a2.564,2.564,0,1,1,5.128,0v7.735h2.607A2.576,2.576,0,0,1,190,337.647" transform="translate(689.105 19.898)" fill="#ffa900"/><path d="M208.489,332.1a2.586,2.586,0,0,1,0-5.172,2.586,2.586,0,1,1,0,5.172m-2.564,21.879v-15.47a2.6,2.6,0,0,1,2.564-2.608,2.642,2.642,0,0,1,2.608,2.608v15.47a2.6,2.6,0,0,1-2.608,2.564,2.566,2.566,0,0,1-2.564-2.564" transform="translate(676.71 19.032)" fill="#ffa900"/><path d="M238.344,344.364v15.47a2.525,2.525,0,0,1-1.68,2.387,2.31,2.31,0,0,1-.928.177,2.564,2.564,0,0,1-1.945-.928l-8.31-9.989v8.354a2.586,2.586,0,0,1-5.171,0v-15.47a2.54,2.54,0,0,1,1.68-2.431,2.3,2.3,0,0,1,.928-.177,2.566,2.566,0,0,1,1.945.928l8.354,9.99v-8.31a2.564,2.564,0,1,1,5.128,0" transform="translate(671.031 13.18)" fill="#ffa900"/><path d="M275.261,362.4a10.729,10.729,0,0,1-2.387,6.807,9.483,9.483,0,0,1-7.293,3.492h-.619a9.719,9.719,0,0,1-7.338-4.508,2.561,2.561,0,0,1,.8-3.536,2.431,2.431,0,0,1,1.414-.442,2.541,2.541,0,0,1,2.123,1.194,4.422,4.422,0,0,0,3.358,2.121h.266a4.41,4.41,0,0,0,3.314-1.591,5.637,5.637,0,0,0,1.238-3.536v-1.194a9.273,9.273,0,0,1-4.508,1.194c-5.349,0-9.68-4.641-9.68-10.343,0-5.658,4.331-10.3,9.68-10.3a9.245,9.245,0,0,1,4.818,1.37,2.554,2.554,0,0,1,4.817,1.194V362.4Zm-5.127-10.343c0-2.829-2.033-5.128-4.508-5.128-2.52,0-4.508,2.3-4.508,5.128,0,2.873,1.988,5.171,4.508,5.171,2.475,0,4.508-2.3,4.508-5.171" transform="translate(656.964 13.18)" fill="#ffa900"/><path d="M336.561,351.481a2.436,2.436,0,0,1,.575,1.591,2.645,2.645,0,0,1-.973,2.034,2.551,2.551,0,0,1-1.635.574,2.426,2.426,0,0,1-1.989-.973l-2.122-2.652a13.6,13.6,0,0,1-1.193,1.326,9.617,9.617,0,0,1-6.233,2.3,9.82,9.82,0,0,1-9.724-9.9,9.941,9.941,0,0,1,5.216-8.752,8.294,8.294,0,0,1-1.105-4.111,8.155,8.155,0,1,1,16.311,0v.619a8.268,8.268,0,0,1-5.79,7.161l2.741,3.4,2.475-2.785a2.455,2.455,0,0,1,1.9-.84,2.554,2.554,0,0,1,1.724.663,2.454,2.454,0,0,1,.84,1.9,2.511,2.511,0,0,1-.619,1.724l-3.049,3.4Zm-9.415-3.492-5.393-6.762a4.754,4.754,0,0,0,1.238,9.281,4.165,4.165,0,0,0,2.741-.972Zm-4.641-15.072a2.9,2.9,0,0,0,.663,1.856l.928,1.149h1.37a3.047,3.047,0,0,0,3.05-3.006v-.4a3.02,3.02,0,0,0-6.011.4" transform="translate(634.336 19.898)" fill="#ffa900"/><path d="M378.841,353.118V327.3a2.566,2.566,0,0,1,2.564-2.563h7.028a12.459,12.459,0,0,1,5.04,1.238,9.56,9.56,0,0,1,5.348,9.06,12.313,12.313,0,0,1-1.238,5.039,9.728,9.728,0,0,1-9.149,5.3h-4.419v7.735a2.586,2.586,0,0,1-5.172,0m5.172-12.907h4.419c2.21,0,3.625-.751,4.464-2.343a6.92,6.92,0,0,0,.752-2.829c0-2.21-.8-3.624-2.475-4.464a6.877,6.877,0,0,0-2.741-.663h-4.419Z" transform="translate(608.45 19.897)" fill="#ffa900"/><path d="M434.177,344.364V354.4a9,9,0,0,1-.973,3.889,7.783,7.783,0,0,1-7.249,4.111,7.692,7.692,0,0,1-7.248-4.111,8.646,8.646,0,0,1-1.017-3.889V344.364a2.576,2.576,0,0,1,2.564-2.608,2.612,2.612,0,0,1,2.607,2.608V354.4a4.09,4.09,0,0,0,.442,1.635c.354.574.928,1.194,2.652,1.194,1.68,0,2.3-.619,2.608-1.194a3.726,3.726,0,0,0,.486-1.635V344.364a2.564,2.564,0,1,1,5.128,0" transform="translate(593.114 13.18)" fill="#ffa900"/><path d="M470.086,345.383c0,5.658-4.332,10.3-9.636,10.3a9,9,0,0,1-4.818-1.37,2.624,2.624,0,0,1-2.3,1.37,2.565,2.565,0,0,1-2.563-2.564V327.3a2.586,2.586,0,0,1,5.171,0v8.928a9.152,9.152,0,0,1,4.508-1.193c5.3,0,9.636,4.641,9.636,10.343m-5.128,0c0-2.873-2.033-5.172-4.508-5.172-2.52,0-4.508,2.3-4.508,5.172,0,2.829,1.989,5.127,4.508,5.127,2.475,0,4.508-2.3,4.508-5.127" transform="translate(580.056 19.897)" fill="#ffa900"/><path d="M491.086,332.1a2.586,2.586,0,0,1,0-5.172,2.586,2.586,0,1,1,0,5.172m-2.564,21.879v-15.47a2.6,2.6,0,0,1,2.564-2.608,2.642,2.642,0,0,1,2.608,2.608v15.47a2.6,2.6,0,0,1-2.608,2.564,2.566,2.566,0,0,1-2.564-2.564" transform="translate(565.153 19.032)" fill="#ffa900"/><path d="M502.907,352.1c0-5.7,4.332-10.343,9.68-10.343a9.05,9.05,0,0,1,3.978.928,2.468,2.468,0,0,1,1.459,2.3,2.4,2.4,0,0,1-.265,1.1,2.487,2.487,0,0,1-3.4,1.238,4.129,4.129,0,0,0-1.768-.4c-2.475,0-4.508,2.3-4.508,5.172,0,2.829,2.033,5.127,4.508,5.127a4.129,4.129,0,0,0,1.768-.4,2.292,2.292,0,0,1,1.06-.221,2.576,2.576,0,0,1,2.343,1.459,2.4,2.4,0,0,1,.265,1.105,2.576,2.576,0,0,1-1.459,2.342,9.644,9.644,0,0,1-3.978.884c-5.349,0-9.68-4.641-9.68-10.3" transform="translate(559.474 13.18)" fill="#ffa900"/><path d="M536.287,332.1a2.586,2.586,0,0,1,0-5.172,2.586,2.586,0,1,1,0,5.172m-2.564,21.879v-15.47a2.6,2.6,0,0,1,2.564-2.608,2.642,2.642,0,0,1,2.608,2.608v15.47a2.6,2.6,0,0,1-2.608,2.564,2.566,2.566,0,0,1-2.564-2.564" transform="translate(547.309 19.032)" fill="#ffa900"/><path d="M558.408,335.04a10.177,10.177,0,0,1,5.171,1.414V327.3a2.586,2.586,0,0,1,5.172,0v25.813a2.6,2.6,0,0,1-4.951,1.061,10.5,10.5,0,0,1-5.392,1.5,10.321,10.321,0,0,1,0-20.642m0,15.47a5.149,5.149,0,1,0-5.128-5.127,5.14,5.14,0,0,0,5.128,5.127" transform="translate(541.63 19.897)" fill="#ffa900"/><path d="M606.086,359.864a2.6,2.6,0,0,1-2.564,2.564,2.528,2.528,0,0,1-2.3-1.414,11.326,11.326,0,0,1-3.05,1.061,15.576,15.576,0,0,1-2.785.309c-3.757,0-6.365-1.9-7.16-5.26a5.489,5.489,0,0,1-.177-1.459,5.547,5.547,0,0,1,1.149-3.4c1.017-1.326,3.138-2.917,7.912-3.094.663,0,1.282-.044,1.945-.044a11.571,11.571,0,0,1,1.68.088,2.691,2.691,0,0,0-.884-1.724,4.8,4.8,0,0,0-2.21-.53,7.328,7.328,0,0,0-4.288,1.5,2.562,2.562,0,0,1-4.2-1.989,2.513,2.513,0,0,1,.928-1.989,11.546,11.546,0,0,1,6.32-2.607,11.273,11.273,0,0,1,5.967,1.1c3.536,1.989,3.669,6.63,3.669,7.116v6.94Zm-5.525-5.481a10.773,10.773,0,0,0-1.5-.088c-.574,0-1.194,0-2.255.044-2.033.088-3.182.619-3.492,1.017a.658.658,0,0,0-.133.353,1.914,1.914,0,0,1,.044.221c.133.531.309,1.282,2.166,1.282a8.589,8.589,0,0,0,1.68-.177.334.334,0,0,1,.177-.044,4.449,4.449,0,0,0,3.094-2.077Z" transform="translate(525.862 13.151)" fill="#ffa900"/><path d="M633.986,335.04a10.177,10.177,0,0,1,5.171,1.414V327.3a2.586,2.586,0,0,1,5.172,0v25.813a2.6,2.6,0,0,1-4.951,1.061,10.5,10.5,0,0,1-5.392,1.5,10.321,10.321,0,0,1,0-20.642m0,15.47a5.149,5.149,0,1,0-5.128-5.127,5.14,5.14,0,0,0,5.128,5.127" transform="translate(511.795 19.897)" fill="#ffa900"/></g><path d="M82.7,82.639q-.178-7.774-.265-15.287t-.442-15.286q-.178-1.942-.439-3.976a8.51,8.51,0,0,0-1.494-3.8,8.83,8.83,0,0,0-5.271-3.446,37.709,37.709,0,0,0-6.848-.972q-1.935,0-3.689.088A9.6,9.6,0,0,0,57.4,43.673a19.7,19.7,0,0,0-2.284,3.8,22.887,22.887,0,0,0-1.933,9.278,83.116,83.116,0,0,1-.527,9.455A68.814,68.814,0,0,0,52.57,77.78q.439,5.922.619,11.575,0,5.3.088,10.692t.088,10.692q0,1.946.088,3.8t.088,3.8q-.53,10.251-1.591,19.793a12.35,12.35,0,0,1-.707,4.241,8.489,8.489,0,0,1-5.3,5.125,5.523,5.523,0,0,1-3.888,0,5.455,5.455,0,0,1-3-3.711,22.046,22.046,0,0,1-1.679-9.631q.265-4.858.619-9.808.352-4.772.442-9.808t-.265-9.808a109.228,109.228,0,0,1-.619-13.254q.087-6.715.53-13.431t.884-13.43Q39.4,57.9,39.4,51.183a28.769,28.769,0,0,0-.265-3.887,6.287,6.287,0,0,0-1.5-3.358,8.321,8.321,0,0,0-2.12-1.414,9.916,9.916,0,0,0-2.209-.8c-.767-.177-1.5-.381-2.209-.619q-3.007-.53-5.832-.8a25.988,25.988,0,0,0-5.655.088,18.425,18.425,0,0,0-5.655,1.591,10.41,10.41,0,0,0-4.242,3.535,12.082,12.082,0,0,0-2.032,4.948q-.444,2.651-.8,5.478Q5.827,70.8,5.739,85.378t-.088,29.6q-.178,9.542-.177,19v19a42.557,42.557,0,0,0,.972,9.19A46.606,46.606,0,0,0,9.362,171a6.337,6.337,0,0,0,1.5,3.888,15.92,15.92,0,0,0,3.711,3.446,36.008,36.008,0,0,0,4.594,2.651,19.477,19.477,0,0,0,3.976,1.5,14.338,14.338,0,0,0,5.3.441,34.083,34.083,0,0,1,5.479-.088h8.306a20.971,20.971,0,0,0,3.27-.266,3.948,3.948,0,0,1,3.092.8,4.357,4.357,0,0,1,1.679,2.385,18.034,18.034,0,0,1,.619,3.181,28.407,28.407,0,0,0,.53,3.269,5.269,5.269,0,0,0,1.414,2.651,5.684,5.684,0,0,0,3.338,1.679,17.051,17.051,0,0,0,3.863.088q3.338,0,6.674-.265a27.158,27.158,0,0,0,6.5-1.325q.878-.356,1.842-.8a4.549,4.549,0,0,0,1.67-1.325,7.21,7.21,0,0,0,2.018-2.828,20.471,20.471,0,0,0,.967-3.357,68.345,68.345,0,0,0,1.933-14.491q.174-7.244.528-14.667.352-7.953.353-15.816t-.177-15.817q-.178-3.885-.265-7.687t-.265-7.864a36.74,36.74,0,0,1,.177-6.273q.352-3.09.707-6.274a56.524,56.524,0,0,0,.177-7.687q-.178-3.8-.177-7.51" transform="translate(52.839 11.351)" fill="#fff"/><path d="M462.858,126.9a19.964,19.964,0,0,0-7.423-.353,31.637,31.637,0,0,0-7.069,1.944,5.241,5.241,0,0,0-3,4.948q-.179,2.65-.353,5.213t-.353,5.213a5.927,5.927,0,0,1-.353,2.032,3.8,3.8,0,0,1-1.237,1.679H439.8q-2.385,0-4.948-.088t-4.948-.177q-2.386-.087-3.269-.088-5.481-.53-5.832-6.186a29.244,29.244,0,0,1-.088-3.976q.087-2.029.265-4.153.173-4.772.442-9.631t.442-9.808q0-3.533-.353-7.158t-.353-7.157q0-10.6.53-21.03a8.451,8.451,0,0,1,1.767-5.3q.351-.7,2.385-.971t2.916-.442a17.264,17.264,0,0,1,2.563.177,16.734,16.734,0,0,0,2.562.177c.47.119.884.208,1.237.266a1.607,1.607,0,0,1,.884.441h.177a3.88,3.88,0,0,1,.707,2.474v5.3q.174,1.238.266,2.385a3.6,3.6,0,0,0,.795,2.033,3.938,3.938,0,0,0,2.385,1.59q1.5.356,3.093.707a71.732,71.732,0,0,0,7.952.265q3.885-.087,7.952-.442a20.216,20.216,0,0,0,2.032-.442,5.148,5.148,0,0,0,1.855-.971q1.944-1.766,1.856-5.479t.088-6.186q.352-3.533.353-6.98a69.652,69.652,0,0,1,.353-6.98,11.12,11.12,0,0,1,.088-1.414q.087-.7.265-1.591a13.69,13.69,0,0,0-.353-8.659c-.237-.588-.53-1.237-.884-1.944s-.648-1.353-.884-1.943a7.7,7.7,0,0,0-2.562-3.535,8.912,8.912,0,0,0-3.976-1.591q-2.3-.352-4.418-.707t-4.418-.53q-6.718-.174-13.254-.265t-13.254-.088q-5.129,0-10.6-.088a37.466,37.466,0,0,0-10.6,1.325,21.233,21.233,0,0,0-6.1,2.828,12.061,12.061,0,0,0-4.329,4.948,14.748,14.748,0,0,0-1.414,6.362,63.634,63.634,0,0,0,.353,6.716q1.235,13.783,1.326,27.48t-.177,27.391q-.265,13.7-.442,27.392t.707,27.479a10.414,10.414,0,0,0,3.888,7.776,15.538,15.538,0,0,0,7.069,3,51.749,51.749,0,0,0,8.482.707q4.242,0,8.306-.353,2.473-.179,6.45-.353t8.217-.353q4.242-.179,8.217-.353t6.451-.177q3.885-.179,7.6-.442a26,26,0,0,0,7.423-1.678,13.328,13.328,0,0,0,4.064-2.209,13.965,13.965,0,0,0,2.828-3.27,12.752,12.752,0,0,0,1.678-5.036q.265-2.56.442-5.213,0-2.651.088-5.3t.266-5.125q.351-3.355.441-6.538a49.632,49.632,0,0,0-.264-6.538q-1.06-8.834-9.72-10.957" transform="translate(-98.625 12.334)" fill="#fff"/><path d="M609.56,48.532q-.357-1.413-.8-2.916a5.945,5.945,0,0,0-1.5-2.563,6.553,6.553,0,0,0-4.065-2.121,35.182,35.182,0,0,0-4.948-.353q-3.007.179-6.274.619a12.644,12.644,0,0,0-5.743,2.209,12.4,12.4,0,0,0-3.8,3.623q-1.5,2.212-2.916,4.683-1.591,2.476-3.181,5.125l-3.181,5.3q-1.417,2.478-2.651,4.86a25.2,25.2,0,0,1-3,4.506,4.9,4.9,0,0,0-1.237-1.414,3.487,3.487,0,0,1-1.06-1.237,93.063,93.063,0,0,0-5.036-8.836,65.805,65.805,0,0,1-4.86-9.013,26.79,26.79,0,0,0-3.622-6.1,13.26,13.26,0,0,0-5.39-4.331,25.638,25.638,0,0,0-2.74-.53,21.1,21.1,0,0,0-2.739-.177l-8.483.53a21.262,21.262,0,0,0-5.743,1.5,6.7,6.7,0,0,0-3.8,3.8,6.367,6.367,0,0,0-.266,4.772,28.118,28.118,0,0,0,2.033,4.771q6.714,13.081,13.607,25.889T552.3,106.673a1.577,1.577,0,0,1-.177.706q-4.419,12.194-8.748,24.476t-8.571,24.652q-1.238,3.008-2.208,6.186t-1.68,6.538a28.565,28.565,0,0,0-.441,3.711,16.026,16.026,0,0,0,.264,3.711,7.9,7.9,0,0,0,1.5,3.446,8.846,8.846,0,0,0,2.739,2.386,7.823,7.823,0,0,0,2.563.619c.884.058,1.794.146,2.739.265h4.153a15.74,15.74,0,0,0,4.153-.53,18.955,18.955,0,0,0,5.832-2.739,25.641,25.641,0,0,0,4.772-4.329,35.673,35.673,0,0,0,3.446-5.3q1.5-2.825,2.915-5.832,2.824-6.536,5.125-13.166t4.771-13.343a127.955,127.955,0,0,1,5.567-12.635,84.7,84.7,0,0,0,5.213-12.812,157.453,157.453,0,0,1,5.743-15.817q3.268-7.686,6.98-15.109,2.121-4.064,4.065-8.218a72.054,72.054,0,0,0,3.358-8.571q.7-1.942,1.591-3.888a22.4,22.4,0,0,0,1.414-4.241,27.851,27.851,0,0,0,.177-8.306" transform="translate(-151.136 11.351)" fill="#fff"/><path d="M225.819,79.807q-.357-7.774-.53-15.463t-.353-15.463c0-.707.028-1.414.088-2.121s.088-1.414.088-2.12q.173-3.71.177-7.422a8.246,8.246,0,0,0-.092-1.157l.064-.021q-.694-7.032-1.995-13.947c-.22-.851-.408-1.706-.571-2.56a7.339,7.339,0,0,0-.9-2.377,9.089,9.089,0,0,0-4.409-3.657,18.364,18.364,0,0,0-5.552-1.28,23.2,23.2,0,0,0-7.348.457,9.667,9.667,0,0,0-6.042,4.115,13.9,13.9,0,0,0-2.123,6.949,56.448,56.448,0,0,0,.163,7.5c.143,1.606-.962,12.866-.887,14.463q-.356,4.772-.353,9.632t-.177,9.631a9.493,9.493,0,0,1-.088,1.325,12.136,12.136,0,0,0-.088,1.679q-3.711-4.594-7.334-8.837a109.306,109.306,0,0,1-6.8-8.836q-3.18-4.593-6.008-9.366t-5.832-9.72c-.353-.116-.737-.235-1.148-.353s-.914-.235-1.5-.353a37.832,37.832,0,0,0-8.041-.884,62.1,62.1,0,0,0-8.041.53,5.324,5.324,0,0,0-4.948,3.711c-.353.945-.679,1.855-.972,2.739s-.56,1.8-.795,2.74q-.357,3.711-.707,7.421t-.53,7.6q-.357,6.009-.442,11.929t-.619,11.928q-.53,7.248-1.06,14.314t-.353,14.315q.173,9.012.619,18.025a167.832,167.832,0,0,1-.088,18.025,106.019,106.019,0,0,0-.134,15.457c-.013.134-.022.268-.035.4a50.545,50.545,0,0,0-.183,7.5,12.858,12.858,0,0,0,2.377,6.949,10.943,10.943,0,0,0,6.767,4.115,29.049,29.049,0,0,0,8.229.457,22.672,22.672,0,0,0,6.218-1.28,10,10,0,0,0,4.938-3.658,6.879,6.879,0,0,0,1.006-2.377c.183-.854.394-1.709.64-2.56q1.055-4.975,1.742-10.014c.111-.04.222-.08.334-.118.042-1.17.08-2.334.12-3.5.011-.1.027-.208.038-.312h-.028q.259-7.5.487-14.944.882-24.739.53-49.481l.353.353a23.492,23.492,0,0,1,4.418,4.594q1.943,2.651,3.711,5.391t3.623,5.566a39.29,39.29,0,0,0,3.976,5.125q.7.708,1.325,1.414a5.572,5.572,0,0,1,.972,1.591,8.248,8.248,0,0,1,.353,2.827q.352,5.832.442,11.752t.442,11.929q.352,5.3.972,10.691t.8,10.692q.53,7.6,6.892,10.073a33.393,33.393,0,0,0,9.543,2.3,12.3,12.3,0,0,0,5.477-.53q2.651-.887,5.3-1.767a4.469,4.469,0,0,0,2.651-3.711q.173-1.416.265-3c.057-1.06.088-2.06.088-3a79.147,79.147,0,0,0,.177-9.1,77.818,77.818,0,0,1,.177-9.1q.53-7.243.884-14.4t.353-14.4q0-8.835-.266-17.5t-.441-17.5" transform="translate(-0.152 22.312)" fill="#fff"/><g transform="translate(-703 -121)"><path d="M331.758,58.323l-4.392-22.747c-7.171,15.231-14.658,23.638-18.249,27.119-4.21,7.906-13.979,29.523-8.671,51.4,9.96-9.833,25.185-28.592,31.313-55.773" transform="translate(640.006 134.047)" fill="#ffa900"/><path d="M334.736,16.254,331.931,1.725a2.128,2.128,0,0,0-4.18,0l-7.594,39.331a107.023,107.023,0,0,0,14.579-24.8" transform="translate(631.616 148.091)" fill="#ffa900"/><path d="M337.179,125.371c2.253-19.435-5.955-37.586-9.776-44.79-7.685,29.236-25.446,48.406-34.834,56.877a172.372,172.372,0,0,0-9.993,51.562,8.828,8.828,0,0,0,1.35,4.971c9.494-7.17,45.915-36.442,53.252-68.62" transform="translate(646.452 116.281)" fill="#ffa900"/><path d="M339.248,172.557c-11.6,28.974-41.82,53.206-50.958,60.055a8.655,8.655,0,0,0,4.04,1.7l5.025.72a140.46,140.46,0,0,0,39.811,0l5.026-.72a8.769,8.769,0,0,0,7.5-8.985,172.04,172.04,0,0,0-10.44-52.771" transform="translate(644.196 79.973)" fill="#ffa900"/></g></g></svg>