<svg xmlns="http://www.w3.org/2000/svg" width="333.92" height="196.88" viewBox="0 0 333.92 196.88">
  <g id="Unicy_333x196" data-name="Unicy 333x196" transform="translate(-2443.752 -343.561)">
    <g id="Grupo_1" data-name="Grupo 1" transform="translate(2443.752 506.296)">
      <path id="Trazado_1" data-name="Trazado 1" d="M2462.949,691.8V676.829l-5.74,7.686a2.121,2.121,0,0,1-3.437,0l-5.741-7.686V691.8a2.139,2.139,0,0,1-4.279,0V670.425a2.131,2.131,0,0,1,2.158-2.123,2.061,2.061,0,0,1,1.682.842l7.9,10.54,7.9-10.54a2.06,2.06,0,0,1,1.682-.842,2.131,2.131,0,0,1,2.157,2.123V691.8a2.139,2.139,0,0,1-4.278,0Z" transform="translate(-2443.752 -668.302)" fill="#fff"/>
      <path id="Trazado_2" data-name="Trazado 2" d="M2511.394,700.322a2.147,2.147,0,0,1-2.121,2.123,2.091,2.091,0,0,1-1.9-1.171,9.367,9.367,0,0,1-2.523.879,12.887,12.887,0,0,1-2.3.256c-3.108,0-5.265-1.574-5.923-4.355a4.55,4.55,0,0,1-.146-1.208,4.6,4.6,0,0,1,.951-2.818c.841-1.1,2.6-2.415,6.545-2.562.548,0,1.061-.036,1.609-.036a9.51,9.51,0,0,1,1.389.074,2.229,2.229,0,0,0-.731-1.428,3.965,3.965,0,0,0-1.829-.439,6.057,6.057,0,0,0-3.547,1.244,2.109,2.109,0,0,1-1.353.476,2.1,2.1,0,0,1-2.12-2.122,2.082,2.082,0,0,1,.767-1.647,9.553,9.553,0,0,1,5.229-2.159,8.25,8.25,0,0,1,.951-.037,8.333,8.333,0,0,1,3.985.952c2.926,1.647,3.035,5.49,3.035,5.892v5.745Zm-4.571-4.538a8.9,8.9,0,0,0-1.243-.073c-.475,0-.987,0-1.865.037-1.682.073-2.633.513-2.888.842a.545.545,0,0,0-.11.293,1.581,1.581,0,0,1,.037.183c.11.439.256,1.061,1.792,1.061a7.1,7.1,0,0,0,1.39-.146.276.276,0,0,1,.146-.037,3.681,3.681,0,0,0,2.56-1.72Z" transform="translate(-2470.077 -676.827)" fill="#fff"/>
      <path id="Trazado_3" data-name="Trazado 3" d="M2540.63,687.477a2.123,2.123,0,0,1-2.121,2.123c-.694,0-1.609.11-1.974.659a1.31,1.31,0,0,0-.146.4v9.625a2.139,2.139,0,0,1-4.278,0V687.477a2.131,2.131,0,0,1,2.121-2.159,2.033,2.033,0,0,1,1.39.513,7.553,7.553,0,0,1,2.888-.513A2.132,2.132,0,0,1,2540.63,687.477Z" transform="translate(-2487.871 -676.791)" fill="#fff"/>
      <path id="Trazado_4" data-name="Trazado 4" d="M2568.2,690.26a2.041,2.041,0,0,1,.622,1.537,2.119,2.119,0,0,1-3.62,1.5l-5.96-5.965V691.8a2.155,2.155,0,0,1-2.157,2.123,2.123,2.123,0,0,1-2.121-2.123V670.425a2.124,2.124,0,0,1,2.121-2.123,2.155,2.155,0,0,1,2.157,2.123v12.992l5.96-5.965a2.1,2.1,0,0,1,1.5-.586,2.158,2.158,0,0,1,1.5.586,2.29,2.29,0,0,1,.622,1.537,2.138,2.138,0,0,1-.622,1.5l-4.9,4.9Z" transform="translate(-2499.282 -668.302)" fill="#fff"/>
      <path id="Trazado_5" data-name="Trazado 5" d="M2592.876,702.372a7.328,7.328,0,0,1-5.484-2.708,9.291,9.291,0,0,1-1.829-5.819c0-4.721,3.364-8.527,7.459-8.527a7.032,7.032,0,0,1,5.338,2.415,8.384,8.384,0,0,1,2.121,5.746,2.154,2.154,0,0,1-2.121,2.159h-8.3a3.173,3.173,0,0,0,3.035,2.489h.219a4.074,4.074,0,0,0,2.487-.658,2.268,2.268,0,0,1,1.17-.33,2.128,2.128,0,0,1,1.792.952,1.832,1.832,0,0,1,.365,1.135,2.228,2.228,0,0,1-.987,1.83,8.343,8.343,0,0,1-4.607,1.354A3.165,3.165,0,0,1,2592.876,702.372Zm2.889-11.016a3.038,3.038,0,0,0-2.742-1.793,3.107,3.107,0,0,0-2.559,1.793Z" transform="translate(-2514.56 -676.791)" fill="#fff"/>
      <path id="Trazado_6" data-name="Trazado 6" d="M2631.075,678.988a2.123,2.123,0,0,1-2.121,2.123H2626.8V691.8a2.121,2.121,0,1,1-4.242,0V681.111H2620.4a2.141,2.141,0,0,1,0-4.282h2.157v-6.4a2.121,2.121,0,1,1,4.242,0v6.4h2.157A2.131,2.131,0,0,1,2631.075,678.988Z" transform="translate(-2530.895 -668.302)" fill="#fff"/>
      <path id="Trazado_7" data-name="Trazado 7" d="M2651.8,674.775a2.141,2.141,0,0,1,0-4.282,2.141,2.141,0,1,1,0,4.282Zm-2.121,18.115V680.081a2.155,2.155,0,0,1,2.121-2.159,2.186,2.186,0,0,1,2.157,2.159V692.89a2.155,2.155,0,0,1-2.157,2.123A2.123,2.123,0,0,1,2649.677,692.89Z" transform="translate(-2546.573 -669.395)" fill="#fff"/>
      <path id="Trazado_8" data-name="Trazado 8" d="M2678.981,687.477v12.809a2.091,2.091,0,0,1-1.389,1.976,1.91,1.91,0,0,1-.768.146,2.12,2.12,0,0,1-1.609-.769l-6.875-8.271v6.916a2.139,2.139,0,0,1-4.278,0V687.477a2.1,2.1,0,0,1,1.389-2.013,1.906,1.906,0,0,1,.768-.147,2.121,2.121,0,0,1,1.608.769l6.911,8.271v-6.88a2.121,2.121,0,1,1,4.242,0Z" transform="translate(-2553.756 -676.791)" fill="#fff"/>
      <path id="Trazado_9" data-name="Trazado 9" d="M2715.677,702.409a8.891,8.891,0,0,1-1.975,5.636,7.842,7.842,0,0,1-6.033,2.891h-.512a8.04,8.04,0,0,1-6.07-3.733,2.121,2.121,0,0,1,.658-2.927,2.006,2.006,0,0,1,1.17-.366,2.1,2.1,0,0,1,1.755.988,3.659,3.659,0,0,0,2.779,1.757h.219a3.649,3.649,0,0,0,2.742-1.317,4.675,4.675,0,0,0,1.024-2.928v-.988a7.666,7.666,0,0,1-3.729.988,8.563,8.563,0,0,1,0-17.091,7.641,7.641,0,0,1,3.986,1.135,2.113,2.113,0,0,1,3.986.988v14.968Zm-4.242-8.564a3.765,3.765,0,1,0-3.729,4.282A4.022,4.022,0,0,0,2711.435,693.845Z" transform="translate(-2571.549 -676.791)" fill="#fff"/>
      <path id="Trazado_10" data-name="Trazado 10" d="M2776.29,690.443a2.017,2.017,0,0,1,.475,1.317,2.189,2.189,0,0,1-.8,1.684,2.108,2.108,0,0,1-1.353.476,2.007,2.007,0,0,1-1.645-.805l-1.755-2.2a11.268,11.268,0,0,1-.987,1.1,7.952,7.952,0,0,1-5.156,1.9,8.127,8.127,0,0,1-8.044-8.2,8.231,8.231,0,0,1,4.315-7.246,6.87,6.87,0,0,1-.914-3.4,6.746,6.746,0,1,1,13.492,0v.512a6.844,6.844,0,0,1-4.79,5.929l2.267,2.818,2.047-2.305a2.031,2.031,0,0,1,1.573-.7,2.113,2.113,0,0,1,1.426.549,2.034,2.034,0,0,1,.694,1.574,2.084,2.084,0,0,1-.511,1.427L2774.1,687.7Zm-7.789-2.891-4.461-5.6a3.937,3.937,0,0,0,1.023,7.685,3.443,3.443,0,0,0,2.267-.8Zm-3.839-12.479a2.4,2.4,0,0,0,.548,1.537l.768.952h1.133a2.522,2.522,0,0,0,2.523-2.489v-.329a2.5,2.5,0,0,0-4.973.329Z" transform="translate(-2600.171 -668.302)" fill="#fff"/>
      <path id="Trazado_11" data-name="Trazado 11" d="M2822.594,691.8V670.425a2.124,2.124,0,0,1,2.121-2.123h5.814a10.3,10.3,0,0,1,4.168,1.025,7.917,7.917,0,0,1,4.424,7.5A10.208,10.208,0,0,1,2838.1,681a8.047,8.047,0,0,1-7.569,4.391h-3.656v6.4a2.139,2.139,0,0,1-4.278,0Zm4.278-10.686h3.656a3.728,3.728,0,0,0,3.693-1.94,5.742,5.742,0,0,0,.622-2.342,3.694,3.694,0,0,0-2.048-3.7,5.684,5.684,0,0,0-2.267-.549h-3.656Z" transform="translate(-2632.913 -668.302)" fill="#fff"/>
      <path id="Trazado_12" data-name="Trazado 12" d="M2875.081,687.477v8.307a7.452,7.452,0,0,1-.8,3.221,6.437,6.437,0,0,1-6,3.4,6.363,6.363,0,0,1-6-3.4,7.163,7.163,0,0,1-.841-3.221v-8.307a2.132,2.132,0,0,1,2.121-2.159,2.163,2.163,0,0,1,2.157,2.159v8.307a3.386,3.386,0,0,0,.365,1.354c.292.476.768.988,2.194.988,1.389,0,1.9-.512,2.157-.988a3.089,3.089,0,0,0,.4-1.354v-8.307a2.121,2.121,0,1,1,4.242,0Z" transform="translate(-2652.31 -676.791)" fill="#fff"/>
      <path id="Trazado_13" data-name="Trazado 13" d="M2910.5,685.393c0,4.685-3.583,8.527-7.971,8.527a7.445,7.445,0,0,1-3.986-1.135,2.17,2.17,0,0,1-1.9,1.135,2.123,2.123,0,0,1-2.121-2.123V670.425a2.139,2.139,0,0,1,4.278,0v7.392a7.568,7.568,0,0,1,3.73-.988C2906.917,676.829,2910.5,680.672,2910.5,685.393Zm-4.242,0a3.761,3.761,0,1,0-3.73,4.245A4.034,4.034,0,0,0,2906.259,685.393Z" transform="translate(-2668.827 -668.302)" fill="#fff"/>
      <path id="Trazado_14" data-name="Trazado 14" d="M2934.4,674.775a2.141,2.141,0,0,1,0-4.282,2.141,2.141,0,1,1,0,4.282Zm-2.121,18.115V680.081a2.155,2.155,0,0,1,2.121-2.159,2.187,2.187,0,0,1,2.157,2.159V692.89a2.155,2.155,0,0,1-2.157,2.123A2.124,2.124,0,0,1,2932.275,692.89Z" transform="translate(-2687.678 -669.395)" fill="#fff"/>
      <path id="Trazado_15" data-name="Trazado 15" d="M2946.66,693.882a8.3,8.3,0,0,1,8.007-8.564,7.483,7.483,0,0,1,3.291.769,2.043,2.043,0,0,1,1.207,1.9,1.981,1.981,0,0,1-.219.915,2.058,2.058,0,0,1-2.816,1.025,3.411,3.411,0,0,0-1.462-.329,4.3,4.3,0,0,0,0,8.527,3.411,3.411,0,0,0,1.462-.329,1.9,1.9,0,0,1,.878-.183,2.131,2.131,0,0,1,1.938,1.208,1.982,1.982,0,0,1,.219.915,2.133,2.133,0,0,1-1.207,1.939,7.973,7.973,0,0,1-3.291.732A8.294,8.294,0,0,1,2946.66,693.882Z" transform="translate(-2694.861 -676.791)" fill="#fff"/>
      <path id="Trazado_16" data-name="Trazado 16" d="M2979.6,674.775a2.141,2.141,0,0,1,0-4.282,2.141,2.141,0,1,1,0,4.282Zm-2.121,18.115V680.081a2.155,2.155,0,0,1,2.121-2.159,2.186,2.186,0,0,1,2.157,2.159V692.89a2.155,2.155,0,0,1-2.157,2.123A2.123,2.123,0,0,1,2977.476,692.89Z" transform="translate(-2710.248 -669.395)" fill="#fff"/>
      <path id="Trazado_17" data-name="Trazado 17" d="M3000.381,676.829a8.418,8.418,0,0,1,4.278,1.171v-7.575a2.139,2.139,0,0,1,4.278,0V691.8a2.148,2.148,0,0,1-4.1.878,8.676,8.676,0,0,1-4.46,1.244,8.545,8.545,0,0,1,0-17.091Zm0,12.809a4.263,4.263,0,1,0-4.241-4.245A4.254,4.254,0,0,0,3000.381,689.638Z" transform="translate(-2717.43 -668.302)" fill="#fff"/>
      <path id="Trazado_18" data-name="Trazado 18" d="M3046.723,700.322a2.147,2.147,0,0,1-2.121,2.123,2.091,2.091,0,0,1-1.9-1.171,9.367,9.367,0,0,1-2.523.879,12.89,12.89,0,0,1-2.3.256c-3.108,0-5.265-1.574-5.924-4.355a4.55,4.55,0,0,1-.146-1.208,4.6,4.6,0,0,1,.951-2.818c.841-1.1,2.6-2.415,6.545-2.562.548,0,1.061-.036,1.609-.036a9.506,9.506,0,0,1,1.389.074,2.226,2.226,0,0,0-.731-1.428,3.964,3.964,0,0,0-1.828-.439,6.059,6.059,0,0,0-3.547,1.244,2.109,2.109,0,0,1-1.353.476,2.1,2.1,0,0,1-2.121-2.122,2.081,2.081,0,0,1,.768-1.647,9.551,9.551,0,0,1,5.229-2.159,9.314,9.314,0,0,1,4.936.915c2.925,1.647,3.035,5.49,3.035,5.892v5.745Zm-4.57-4.538a8.9,8.9,0,0,0-1.243-.073c-.475,0-.987,0-1.865.037-1.682.073-2.632.513-2.888.842a.545.545,0,0,0-.11.293,1.581,1.581,0,0,1,.037.183c.11.439.256,1.061,1.792,1.061a7.1,7.1,0,0,0,1.39-.146.277.277,0,0,1,.146-.037,3.68,3.68,0,0,0,2.559-1.72Z" transform="translate(-2737.375 -676.827)" fill="#fff"/>
      <path id="Trazado_19" data-name="Trazado 19" d="M3075.959,676.829a8.419,8.419,0,0,1,4.278,1.171v-7.575a2.139,2.139,0,0,1,4.278,0V691.8a2.147,2.147,0,0,1-4.095.878,8.677,8.677,0,0,1-4.461,1.244,8.545,8.545,0,0,1,0-17.091Zm0,12.809a4.263,4.263,0,1,0-4.242-4.245A4.254,4.254,0,0,0,3075.959,689.638Z" transform="translate(-2755.167 -668.302)" fill="#fff"/>
    </g>
    <path id="Trazado_20" data-name="Trazado 20" d="M2513.112,418.843q-.148-6.437-.219-12.656t-.366-12.656q-.148-1.609-.364-3.293a7.052,7.052,0,0,0-1.236-3.146,7.3,7.3,0,0,0-4.36-2.853,31.217,31.217,0,0,0-5.666-.805q-1.6,0-3.052.074a7.936,7.936,0,0,0-5.667,3.073,16.345,16.345,0,0,0-1.889,3.146,18.974,18.974,0,0,0-1.6,7.682,68.83,68.83,0,0,1-.437,7.828,57.064,57.064,0,0,0-.073,9.584q.363,4.9.512,9.583,0,4.39.073,8.852t.073,8.852c0,1.075.023,2.122.073,3.146s.073,2.074.073,3.146q-.439,8.487-1.316,16.387a10.241,10.241,0,0,1-.585,3.512,7.027,7.027,0,0,1-4.385,4.244,4.564,4.564,0,0,1-3.216,0A4.518,4.518,0,0,1,2477,469.47a18.262,18.262,0,0,1-1.389-7.974q.219-4.023.512-8.121.292-3.951.365-8.121t-.219-8.121a90.56,90.56,0,0,1-.511-10.974q.072-5.559.438-11.12t.731-11.12q.363-5.559.365-11.12a23.8,23.8,0,0,0-.219-3.219,5.21,5.21,0,0,0-1.243-2.78,6.893,6.893,0,0,0-1.754-1.171,8.2,8.2,0,0,0-1.827-.658c-.635-.146-1.243-.316-1.827-.513q-2.488-.439-4.824-.658a21.51,21.51,0,0,0-4.678.073,15.255,15.255,0,0,0-4.678,1.317,8.623,8.623,0,0,0-3.509,2.927,10.009,10.009,0,0,0-1.681,4.1q-.367,2.195-.658,4.536-.877,12.291-.95,24.362t-.073,24.508q-.147,7.9-.146,15.729v15.729a35.3,35.3,0,0,0,.8,7.609,38.71,38.71,0,0,0,2.412,7.316,5.251,5.251,0,0,0,1.243,3.219,13.176,13.176,0,0,0,3.07,2.853,29.876,29.876,0,0,0,3.8,2.195,16.1,16.1,0,0,0,3.29,1.244,11.839,11.839,0,0,0,4.385.366,28.223,28.223,0,0,1,4.532-.073h6.871a17.332,17.332,0,0,0,2.7-.219,3.265,3.265,0,0,1,2.559.658,3.61,3.61,0,0,1,1.389,1.975,14.938,14.938,0,0,1,.511,2.633,23.557,23.557,0,0,0,.439,2.707,4.368,4.368,0,0,0,1.169,2.195,4.7,4.7,0,0,0,2.762,1.39,14.123,14.123,0,0,0,3.2.074q2.762,0,5.521-.22a22.447,22.447,0,0,0,5.379-1.1q.726-.3,1.524-.659a3.768,3.768,0,0,0,1.382-1.1,5.967,5.967,0,0,0,1.669-2.341,16.958,16.958,0,0,0,.8-2.78,56.622,56.622,0,0,0,1.6-12q.144-6,.437-12.145.29-6.584.292-13.1t-.146-13.1q-.148-3.217-.219-6.365t-.219-6.511a30.394,30.394,0,0,1,.146-5.194q.291-2.558.585-5.194a46.935,46.935,0,0,0,.146-6.365Q2513.11,421.917,2513.112,418.843Z" transform="translate(-2.733 -19.892)" fill="#fff"/>
    <path id="Trazado_21" data-name="Trazado 21" d="M2893.88,455.059a16.5,16.5,0,0,0-6.14-.293,26.193,26.193,0,0,0-5.848,1.609,4.341,4.341,0,0,0-2.484,4.1q-.148,2.194-.292,4.317t-.292,4.316a4.911,4.911,0,0,1-.292,1.682,3.152,3.152,0,0,1-1.024,1.391H2874.8q-1.973,0-4.093-.074t-4.094-.146q-1.974-.072-2.7-.073-4.533-.439-4.824-5.121a24.158,24.158,0,0,1-.073-3.292q.072-1.681.219-3.439.143-3.951.365-7.974t.365-8.121q0-2.925-.292-5.926t-.292-5.926q0-8.78.438-17.412a7,7,0,0,1,1.462-4.39q.291-.583,1.973-.8t2.413-.366a14.268,14.268,0,0,1,2.12.146,13.892,13.892,0,0,0,2.12.146c.388.1.731.172,1.023.219a1.331,1.331,0,0,1,.731.366h.146a3.215,3.215,0,0,1,.585,2.049v4.39q.144,1.025.219,1.975a2.989,2.989,0,0,0,.658,1.683,3.253,3.253,0,0,0,1.973,1.316q1.241.3,2.559.585a59.284,59.284,0,0,0,6.578.22q3.215-.072,6.579-.366a16.52,16.52,0,0,0,1.681-.365,4.246,4.246,0,0,0,1.535-.8,5.651,5.651,0,0,0,1.535-4.536q-.075-3.073.073-5.121.291-2.926.292-5.779a57.808,57.808,0,0,1,.292-5.78,9.256,9.256,0,0,1,.073-1.17q.072-.583.219-1.317a11.342,11.342,0,0,0-.292-7.17q-.294-.731-.731-1.61c-.292-.585-.537-1.12-.731-1.61a6.38,6.38,0,0,0-2.12-2.927,7.379,7.379,0,0,0-3.289-1.317q-1.9-.291-3.655-.585t-3.655-.439q-5.557-.144-10.964-.219t-10.964-.074q-4.242,0-8.771-.073a30.969,30.969,0,0,0-8.771,1.1,17.588,17.588,0,0,0-5.044,2.341,9.983,9.983,0,0,0-3.581,4.1,12.213,12.213,0,0,0-1.17,5.267,52.584,52.584,0,0,0,.292,5.56q1.021,11.413,1.1,22.753t-.146,22.679q-.219,11.341-.365,22.679t.585,22.752a8.624,8.624,0,0,0,3.217,6.438,12.844,12.844,0,0,0,5.847,2.488,42.73,42.73,0,0,0,7.018.585q3.509,0,6.871-.293,2.045-.147,5.336-.293t6.8-.293q3.508-.147,6.8-.293t5.336-.146q3.214-.147,6.286-.366a21.5,21.5,0,0,0,6.141-1.39,11.017,11.017,0,0,0,3.362-1.829,11.566,11.566,0,0,0,2.339-2.707,10.56,10.56,0,0,0,1.388-4.17q.219-2.119.365-4.316,0-2.195.073-4.39t.219-4.243q.292-2.778.365-5.414a40.989,40.989,0,0,0-.219-5.414Q2901.043,456.817,2893.88,455.059Z" transform="translate(-194.316 -18.65)" fill="#fff"/>
    <path id="Trazado_22" data-name="Trazado 22" d="M3038.219,390.6q-.3-1.17-.658-2.414a4.914,4.914,0,0,0-1.242-2.122,5.419,5.419,0,0,0-3.363-1.756,29.086,29.086,0,0,0-4.094-.293q-2.487.148-5.19.513a10.451,10.451,0,0,0-4.751,1.829,10.266,10.266,0,0,0-3.143,3q-1.244,1.831-2.412,3.878-1.316,2.05-2.632,4.243l-2.632,4.389q-1.172,2.051-2.193,4.024a20.829,20.829,0,0,1-2.485,3.731,4.053,4.053,0,0,0-1.023-1.171,2.877,2.877,0,0,1-.877-1.024,77.118,77.118,0,0,0-4.167-7.316,54.538,54.538,0,0,1-4.02-7.462,22.171,22.171,0,0,0-3-5.048,10.97,10.97,0,0,0-4.458-3.586,21.209,21.209,0,0,0-2.267-.439,17.448,17.448,0,0,0-2.266-.146l-7.018.439a17.571,17.571,0,0,0-4.751,1.244,5.54,5.54,0,0,0-3.143,3.146,5.278,5.278,0,0,0-.22,3.951,23.35,23.35,0,0,0,1.681,3.95q5.554,10.83,11.257,21.436t11.695,21.143a1.306,1.306,0,0,1-.146.585q-3.656,10.1-7.237,20.265T2976.38,480q-1.025,2.49-1.827,5.121t-1.389,5.414a23.593,23.593,0,0,0-.365,3.073,13.271,13.271,0,0,0,.219,3.072,6.543,6.543,0,0,0,1.243,2.853,7.322,7.322,0,0,0,2.266,1.975,6.462,6.462,0,0,0,2.12.512c.731.048,1.484.121,2.266.219h3.435a13,13,0,0,0,3.435-.439,15.673,15.673,0,0,0,4.825-2.268,21.212,21.212,0,0,0,3.947-3.585,29.469,29.469,0,0,0,2.851-4.39q1.241-2.339,2.412-4.828,2.336-5.411,4.239-10.9T3010,464.787a105.862,105.862,0,0,1,4.605-10.461,70.17,70.17,0,0,0,4.313-10.608,130.306,130.306,0,0,1,4.751-13.1q2.7-6.364,5.774-12.51,1.755-3.365,3.363-6.8a59.746,59.746,0,0,0,2.778-7.1q.582-1.608,1.316-3.219a18.565,18.565,0,0,0,1.169-3.511A23.071,23.071,0,0,0,3038.219,390.6Z" transform="translate(-260.734 -19.892)" fill="#fff"/>
    <path id="Trazado_23" data-name="Trazado 23" d="M2654.7,411.722q-.294-6.437-.439-12.8t-.292-12.8q0-.877.073-1.755c.048-.585.073-1.171.073-1.756q.144-3.072.146-6.145a6.775,6.775,0,0,0-.076-.958l.053-.018q-.573-5.823-1.651-11.547-.272-1.058-.472-2.12a6.094,6.094,0,0,0-.743-1.968,7.523,7.523,0,0,0-3.647-3.028,15.178,15.178,0,0,0-4.593-1.06,19.176,19.176,0,0,0-6.078.378,8,8,0,0,0-5,3.407,11.511,11.511,0,0,0-1.756,5.753,46.888,46.888,0,0,0,.135,6.208c.118,1.329-.8,10.653-.733,11.975q-.3,3.95-.292,7.974t-.146,7.974a7.856,7.856,0,0,1-.074,1.1,10.032,10.032,0,0,0-.073,1.39q-3.07-3.8-6.067-7.316a90.477,90.477,0,0,1-5.629-7.316q-2.631-3.8-4.97-7.754t-4.824-8.048q-.439-.144-.95-.293t-1.243-.293a31.3,31.3,0,0,0-6.652-.732,51.329,51.329,0,0,0-6.652.439,4.406,4.406,0,0,0-4.094,3.073c-.292.782-.562,1.536-.8,2.268s-.464,1.488-.657,2.268q-.295,3.073-.585,6.145t-.438,6.292q-.3,4.975-.366,9.877t-.512,9.876q-.438,6-.877,11.852t-.292,11.852q.144,7.462.512,14.924a139.1,139.1,0,0,1-.073,14.924,87.759,87.759,0,0,0-.11,12.8c-.011.111-.018.222-.03.333a41.884,41.884,0,0,0-.151,6.208,10.653,10.653,0,0,0,1.967,5.753,9.051,9.051,0,0,0,5.6,3.407,24.014,24.014,0,0,0,6.808.378,18.745,18.745,0,0,0,5.144-1.06,8.279,8.279,0,0,0,4.085-3.028,5.72,5.72,0,0,0,.832-1.968c.152-.707.326-1.415.529-2.12q.873-4.119,1.441-8.291c.092-.033.183-.066.277-.1.034-.969.066-1.933.1-2.9.01-.086.022-.172.032-.259h-.023q.214-6.213.4-12.373.73-20.483.438-40.969l.292.293a19.448,19.448,0,0,1,3.655,3.8q1.607,2.194,3.07,4.463t3,4.609a32.533,32.533,0,0,0,3.29,4.243q.582.586,1.1,1.171a4.63,4.63,0,0,1,.8,1.317,6.846,6.846,0,0,1,.292,2.341q.29,4.828.365,9.73t.366,9.877q.29,4.388.8,8.852t.658,8.852q.439,6.289,5.7,8.34a27.59,27.59,0,0,0,7.9,1.9,10.171,10.171,0,0,0,4.532-.439q2.193-.734,4.385-1.463a3.7,3.7,0,0,0,2.193-3.073q.144-1.173.219-2.487t.073-2.488a65.45,65.45,0,0,0,.146-7.535,64.6,64.6,0,0,1,.146-7.536q.439-6,.731-11.924t.292-11.925q0-7.315-.219-14.486T2654.7,411.722Z" transform="translate(-69.76 -6.04)" fill="#fff"/>
    <g id="Grupo_2" data-name="Grupo 2" transform="translate(2585.233 343.561)">
      <path id="Trazado_24" data-name="Trazado 24" d="M2769.834,397.972l-3.634-18.834c-5.932,12.611-12.125,19.572-15.1,22.454-3.483,6.546-11.564,24.444-7.173,42.558A95.051,95.051,0,0,0,2769.834,397.972Z" transform="translate(-2734.48 -361.31)" fill="#fff"/>
      <path id="Trazado_25" data-name="Trazado 25" d="M2775.97,357.019l-2.321-12.03a1.76,1.76,0,0,0-3.457,0l-6.282,32.565A88.634,88.634,0,0,0,2775.97,357.019Z" transform="translate(-2745.092 -343.561)" fill="#fff"/>
      <path id="Trazado_26" data-name="Trazado 26" d="M2771.5,461.229c1.864-16.092-4.927-31.119-8.088-37.085a98.332,98.332,0,0,1-28.815,47.092,142.794,142.794,0,0,0-8.266,42.691,7.313,7.313,0,0,0,1.117,4.116C2735.3,512.108,2765.43,487.871,2771.5,461.229Z" transform="translate(-2726.326 -383.762)" fill="#fff"/>
      <path id="Trazado_27" data-name="Trazado 27" d="M2774.2,516.119c-9.6,23.99-34.6,44.053-42.156,49.723a7.158,7.158,0,0,0,3.342,1.409l4.158.6a116.1,116.1,0,0,0,32.934,0l4.158-.6a7.258,7.258,0,0,0,6.2-7.44A142.552,142.552,0,0,0,2774.2,516.119Z" transform="translate(-2729.18 -429.646)" fill="#fff"/>
    </g>
  </g>
</svg>
